<?xml version="1.0" encoding="utf-8"?>
<!-- Generator: Adobe Illustrator 16.0.4, SVG Export Plug-In . SVG Version: 6.00 Build 0)  -->
<!DOCTYPE svg PUBLIC "-//W3C//DTD SVG 1.1//EN" "http://www.w3.org/Graphics/SVG/1.1/DTD/svg11.dtd">
<svg version="1.1" id="Layer_1" xmlns="http://www.w3.org/2000/svg" xmlns:xlink="http://www.w3.org/1999/xlink" x="0px" y="0px"
	 width="221.5px" height="264px" viewBox="0 0 221.5 264" enable-background="new 0 0 221.5 264" xml:space="preserve">
<path fill="none" stroke="#000000" stroke-linecap="round" stroke-linejoin="round" stroke-miterlimit="10" d="M91.233,11.326"/>
<path fill="none" stroke="#000000" stroke-linecap="round" stroke-linejoin="round" stroke-miterlimit="10" d="M89.233,12.929"/>
<g>
	<path fill="#7B94A8" d="M110.25,0h-18c-1.104,0-2,0.896-2,2s0.896,2,2,2h18c1.104,0,2-0.896,2-2S111.354,0,110.25,0z"/>
	<path fill="#7B94A8" d="M110.25,7h-18c-1.104,0-2,0.896-2,2s0.896,2,2,2h18c1.104,0,2-0.896,2-2S111.354,7,110.25,7z"/>
	<path fill="#7B94A8" d="M110.25,14h-18c-1.104,0-2,0.896-2,2s0.896,2,2,2h18c1.104,0,2-0.896,2-2S111.354,14,110.25,14z"/>
</g>
<g>
	<path fill="#2D3A44" d="M132.25,0h-18c-1.104,0-2,0.896-2,2s0.896,2,2,2h18c1.104,0,2-0.896,2-2S133.354,0,132.25,0z"/>
	<path fill="#2D3A44" d="M132.25,7h-18c-1.104,0-2,0.896-2,2s0.896,2,2,2h18c1.104,0,2-0.896,2-2S133.354,7,132.25,7z"/>
	<path fill="#2D3A44" d="M132.25,14h-18c-1.104,0-2,0.896-2,2s0.896,2,2,2h18c1.104,0,2-0.896,2-2S133.354,14,132.25,14z"/>
</g>
<g>
	<path fill="#FFFFFF" d="M52.732,2.84h-1.895c-0.363-1.137-1.436-1.927-2.728-1.833L37.697,1.771
		c-1.505,0.11-2.731,1.43-2.731,2.939v19.636c0,1.5,1.163,2.85,2.647,3.071l10.443,1.553C48.194,28.991,48.33,29,48.463,29
		c1.168,0,2.116-0.773,2.412-1.849h1.857c1.546,0,2.805-1.258,2.805-2.805v-18.7C55.537,4.098,54.278,2.84,52.732,2.84z
		 M49.108,26.45c0,0.453-0.33,0.739-0.777,0.67l-10.443-1.553c-0.561-0.083-1.053-0.653-1.053-1.221V4.71
		c0-0.543,0.457-1.034,0.999-1.074l10.48-0.767c0.453,0,0.794,0.345,0.794,0.803V26.45z M53.667,24.346
		c0,0.516-0.42,0.935-0.935,0.935h-1.753V4.71h1.753c0.515,0,0.935,0.42,0.935,0.935V24.346z"/>
	<path fill="#FFFFFF" d="M47.017,4.475c-0.001,0-0.002,0-0.003,0L38.793,5.01c-0.376,0.024-0.671,0.338-0.671,0.716v5.706
		c0,0.386,0.314,0.7,0.701,0.7h0.001l8.221-0.059c0.386,0,0.699-0.316,0.699-0.702v-6.21C47.745,4.783,47.438,4.475,47.017,4.475z
		 M46.81,11.142l-7.753,0.052V5.93l7.753-0.505V11.142z"/>
	<path fill="#FFFFFF" d="M45.875,13.739c-1.031,0-1.87,0.839-1.87,1.87c0,1.032,0.839,1.87,1.87,1.87s1.87-0.838,1.87-1.87
		C47.745,14.578,46.906,13.739,45.875,13.739z M45.875,16.544c-0.515,0-0.935-0.42-0.935-0.935s0.42-0.935,0.935-0.935
		s0.935,0.42,0.935,0.935C46.81,16.125,46.39,16.544,45.875,16.544z"/>
</g>
<g>
	<path fill="#FFFFFF" d="M38.718,40.333c-1.03,0-1.867,0.837-1.867,1.867c0,1.03,0.837,1.867,1.867,1.867
		c1.029,0,1.866-0.837,1.866-1.867C40.585,41.17,39.748,40.333,38.718,40.333z M38.718,43.134c-0.514,0-0.934-0.42-0.934-0.934
		c0-0.514,0.42-0.934,0.934-0.934c0.514,0,0.934,0.419,0.934,0.934C39.652,42.715,39.231,43.134,38.718,43.134z"/>
	<path fill="#FFFFFF" d="M38.718,45.934c-1.03,0-1.867,0.837-1.867,1.866c0,1.03,0.837,1.867,1.867,1.867
		c1.029,0,1.866-0.837,1.866-1.867C40.585,46.771,39.748,45.934,38.718,45.934z M38.718,48.733c-0.514,0-0.934-0.419-0.934-0.934
		c0-0.514,0.42-0.934,0.934-0.934c0.514,0,0.934,0.42,0.934,0.934C39.651,48.314,39.231,48.733,38.718,48.733z"/>
	<path fill="#FFFFFF" d="M38.718,51.533c-1.03,0-1.867,0.837-1.867,1.867c0,1.03,0.837,1.866,1.867,1.866
		c1.029,0,1.866-0.837,1.866-1.866C40.585,52.37,39.748,51.533,38.718,51.533z M38.718,54.333c-0.514,0-0.934-0.42-0.934-0.934
		s0.42-0.934,0.934-0.934c0.514,0,0.934,0.42,0.934,0.934C39.651,53.914,39.231,54.333,38.718,54.333z"/>
	<path fill="#FFFFFF" d="M54.585,31H35.918c-1.543,0-2.8,1.256-2.8,2.8v22.4c0,1.543,1.257,2.8,2.8,2.8h18.667
		c1.543,0,2.8-1.257,2.8-2.8V33.8C57.385,32.256,56.128,31,54.585,31z M55.518,56.2c0,0.514-0.419,0.934-0.934,0.934H35.918
		c-0.515,0-0.934-0.419-0.934-0.934V33.8c0-0.515,0.419-0.934,0.934-0.934h18.667c0.514,0,0.934,0.419,0.934,0.934L55.518,56.2
		L55.518,56.2z"/>
	<path fill="#FFFFFF" d="M53.185,40.771H42.917c-0.257,0-0.467,0.208-0.467,0.466c0,0.258,0.21,0.468,0.467,0.468h10.267
		c0.257,0,0.468-0.209,0.468-0.468C53.652,40.979,53.443,40.771,53.185,40.771z"/>
	<path fill="#FFFFFF" d="M42.917,43.57h8.4c0.257,0,0.466-0.208,0.466-0.467c0-0.257-0.208-0.467-0.466-0.467h-8.4
		c-0.257,0-0.467,0.209-0.467,0.467C42.451,43.362,42.66,43.57,42.917,43.57z"/>
	<path fill="#FFFFFF" d="M53.185,46.371H42.917c-0.257,0-0.467,0.209-0.467,0.467c0,0.257,0.21,0.467,0.467,0.467h10.267
		c0.257,0,0.468-0.209,0.468-0.467C53.652,46.58,53.443,46.371,53.185,46.371z"/>
	<path fill="#FFFFFF" d="M42.917,49.171h7.467c0.257,0,0.467-0.209,0.467-0.467c0-0.258-0.208-0.466-0.467-0.466h-7.467
		c-0.257,0-0.467,0.208-0.467,0.466C42.451,48.962,42.66,49.171,42.917,49.171z"/>
	<path fill="#FFFFFF" d="M53.185,51.971H42.917c-0.257,0-0.467,0.209-0.467,0.467s0.21,0.467,0.467,0.467h10.267
		c0.257,0,0.468-0.208,0.468-0.467C53.652,52.18,53.443,51.971,53.185,51.971z"/>
	<path fill="#FFFFFF" d="M51.319,53.837h-8.4c-0.257,0-0.467,0.209-0.467,0.467c0,0.259,0.21,0.466,0.467,0.466h8.4
		c0.257,0,0.466-0.208,0.466-0.466C51.785,54.047,51.576,53.837,51.319,53.837z"/>
	<path fill="#FFFFFF" d="M37.785,37.183h14.933c0.515,0,0.934-0.418,0.934-0.934c0-0.515-0.419-0.934-0.934-0.934H37.785
		c-0.515,0-0.934,0.419-0.934,0.934C36.852,36.765,37.27,37.183,37.785,37.183z"/>
</g>
<g>
	<path fill="#FFFFFF" d="M36.822,87.133h1.873c1.033,0,1.873-0.837,1.873-1.867V70.333c0-1.029-0.84-1.867-1.873-1.867h-1.873
		c-1.033,0-1.873,0.837-1.873,1.867v14.933C34.949,86.296,35.789,87.133,36.822,87.133z M36.822,70.333h1.873l-0.002,14.933h-1.871
		V70.333L36.822,70.333z"/>
	<path fill="#FFFFFF" d="M44.313,87.133h1.873c1.033,0,1.873-0.837,1.873-1.867V62.867c0-1.03-0.84-1.867-1.873-1.867h-1.873
		c-1.033,0-1.873,0.837-1.873,1.867v22.399C42.44,86.296,43.281,87.133,44.313,87.133z M44.313,62.867h1.873l-0.003,22.399h-1.87
		V62.867z"/>
	<path fill="#FFFFFF" d="M51.805,87.133h1.873c1.033,0,1.873-0.837,1.873-1.867v-9.333c0-1.029-0.84-1.866-1.873-1.866h-1.873
		c-1.033,0-1.873,0.837-1.873,1.866v9.333C49.932,86.296,50.772,87.133,51.805,87.133z M51.805,75.933h1.873l-0.003,9.333h-1.87
		V75.933L51.805,75.933z"/>
	<path fill="#FFFFFF" d="M57.892,88.066H32.608c-0.258,0-0.468,0.21-0.468,0.467c0,0.257,0.21,0.467,0.468,0.467h25.284
		c0.258,0,0.468-0.21,0.468-0.467C58.36,88.276,58.15,88.066,57.892,88.066z"/>
</g>
<path fill="#FFFFFF" d="M45.217,91c-7.732,0-14,6.269-14,14s6.268,14,14,14c7.732,0,14-6.269,14-14S52.949,91,45.217,91z
	 M45.217,91.934c7.206,0,13.066,5.86,13.066,13.066c0,2.777-0.876,5.347-2.358,7.466c-0.041-0.035-0.072-0.08-0.121-0.109
	c-1.824-1.082-3.997-1.832-6.479-2.236c1.091-1.461,1.726-3.478,1.726-5.662c0-4.375-2.618-7.933-5.833-7.933
	c-3.215,0-5.833,3.558-5.833,7.933c0,2.183,0.633,4.196,1.722,5.657c-2.559,0.405-4.749,1.144-6.527,2.203
	c-0.042,0.026-0.07,0.066-0.107,0.097c-1.461-2.108-2.322-4.664-2.322-7.417C32.15,97.794,38.011,91.934,45.217,91.934z
	 M45.217,118.066c-3.784,0-7.186-1.626-9.574-4.204c1.949-1.136,4.481-1.85,7.535-2.121c0.256-0.008,0.51-0.121,0.687-0.328
	c0.246-0.289,0.295-0.696,0.122-1.034c-0.087-0.17-0.221-0.305-0.382-0.391c-1.433-0.997-2.355-3.156-2.355-5.53
	c0-3.287,1.816-6.067,3.967-6.067c2.151,0,3.966,2.78,3.966,6.067c0,2.376-0.924,4.538-2.359,5.534
	c-0.141,0.079-0.262,0.195-0.348,0.34c-0.183,0.309-0.172,0.697,0.028,0.994c0.18,0.27,0.477,0.416,0.777,0.416
	c0.001,0,0.002,0,0.002,0c2.905,0.262,5.48,1.011,7.467,2.163C52.364,116.458,48.978,118.066,45.217,118.066z"/>
<path fill="#FFFFFF" d="M58.183,167.111c0.018-0.025,0.029-0.057,0.046-0.084c0.05-0.084,0.1-0.168,0.138-0.26
	c0.016-0.037,0.023-0.078,0.037-0.117c0.029-0.084,0.06-0.166,0.077-0.256c0.026-0.129,0.04-0.27,0.04-0.396
	s-0.014-0.268-0.04-0.396c-0.018-0.09-0.048-0.172-0.077-0.256c-0.014-0.039-0.021-0.08-0.037-0.117
	c-0.038-0.092-0.088-0.176-0.138-0.26c-0.017-0.027-0.028-0.059-0.046-0.085c-0.073-0.108-0.156-0.21-0.249-0.304l-6.499-6.498
	c-0.781-0.781-2.048-0.781-2.828,0c-0.781,0.781-0.781,2.047,0,2.828l3.085,3.09H34.479c-1.104,0-2,0.896-2,2s0.896,2,2,2h17.213
	l-3.086,3.086c-0.781,0.781-0.781,2.047,0,2.828c0.39,0.391,0.902,0.586,1.414,0.586s1.023-0.195,1.414-0.586l6.499-6.498
	C58.026,167.322,58.109,167.221,58.183,167.111z"/>
<g>
	<path fill="#415463" d="M82.673,2.813h-1.895c-0.363-1.137-1.435-1.927-2.728-1.833L67.639,1.744
		c-1.505,0.11-2.731,1.43-2.731,2.939v19.636c0,1.5,1.163,2.85,2.647,3.071l10.443,1.553c0.138,0.021,0.274,0.03,0.407,0.03
		c1.168,0,2.116-0.773,2.412-1.849h1.857c1.546,0,2.805-1.258,2.805-2.805v-18.7C85.479,4.071,84.22,2.813,82.673,2.813z
		 M79.05,26.423c0,0.453-0.33,0.739-0.777,0.67L67.831,25.54c-0.562-0.083-1.053-0.653-1.053-1.221V4.684
		c0-0.543,0.457-1.034,0.999-1.074l10.48-0.767c0.453,0,0.794,0.345,0.794,0.803L79.05,26.423L79.05,26.423z M83.608,24.319
		c0,0.516-0.42,0.935-0.935,0.935H80.92V4.684h1.753c0.515,0,0.935,0.42,0.935,0.935V24.319z"/>
	<path fill="#415463" d="M76.958,4.448c-0.001,0-0.002,0-0.003,0l-8.221,0.535c-0.376,0.024-0.671,0.338-0.671,0.716v5.706
		c0,0.386,0.314,0.7,0.701,0.7h0.002l8.221-0.059c0.386,0,0.699-0.316,0.699-0.702v-6.21C77.687,4.756,77.38,4.448,76.958,4.448z
		 M76.751,11.115l-7.753,0.052V5.903l7.753-0.505V11.115z"/>
	<path fill="#415463" d="M75.816,13.712c-1.031,0-1.87,0.839-1.87,1.87c0,1.032,0.839,1.87,1.87,1.87c1.032,0,1.87-0.838,1.87-1.87
		C77.687,14.551,76.848,13.712,75.816,13.712z M75.816,16.518c-0.515,0-0.935-0.42-0.935-0.935s0.42-0.935,0.935-0.935
		s0.935,0.42,0.935,0.935S76.332,16.518,75.816,16.518z"/>
</g>
<g>
	<path fill="#415463" d="M68.701,40.333c-1.028,0-1.866,0.837-1.866,1.867c0,1.03,0.837,1.867,1.866,1.867
		c1.03,0,1.867-0.837,1.867-1.867C70.569,41.17,69.731,40.333,68.701,40.333z M68.701,43.134c-0.514,0-0.934-0.42-0.934-0.934
		c0-0.514,0.42-0.934,0.934-0.934c0.515,0,0.934,0.419,0.934,0.934C69.635,42.715,69.216,43.134,68.701,43.134z"/>
	<path fill="#415463" d="M68.701,45.934c-1.028,0-1.866,0.837-1.866,1.866c0,1.03,0.837,1.867,1.866,1.867
		c1.03,0,1.867-0.837,1.867-1.867C70.569,46.771,69.731,45.934,68.701,45.934z M68.701,48.733c-0.514,0-0.934-0.419-0.934-0.934
		c0-0.514,0.42-0.934,0.934-0.934c0.515,0,0.934,0.42,0.934,0.934C69.635,48.314,69.216,48.733,68.701,48.733z"/>
	<path fill="#415463" d="M68.701,51.533c-1.028,0-1.866,0.837-1.866,1.867c0,1.03,0.837,1.866,1.866,1.866
		c1.03,0,1.867-0.837,1.867-1.866C70.569,52.37,69.731,51.533,68.701,51.533z M68.701,54.333c-0.514,0-0.934-0.42-0.934-0.934
		s0.42-0.934,0.934-0.934c0.515,0,0.934,0.42,0.934,0.934C69.635,53.914,69.216,54.333,68.701,54.333z"/>
	<path fill="#415463" d="M84.569,31H65.902c-1.543,0-2.8,1.256-2.8,2.8v22.4c0,1.543,1.257,2.8,2.8,2.8h18.667
		c1.543,0,2.8-1.257,2.8-2.8V33.8C87.368,32.256,86.112,31,84.569,31z M85.501,56.2c0,0.514-0.419,0.934-0.934,0.934H65.902
		c-0.514,0-0.934-0.419-0.934-0.934V33.8c0-0.515,0.419-0.934,0.934-0.934h18.667c0.514,0,0.934,0.419,0.934,0.934L85.501,56.2
		L85.501,56.2z"/>
	<path fill="#415463" d="M83.169,40.771H72.902c-0.258,0-0.466,0.208-0.466,0.466c0,0.258,0.208,0.468,0.466,0.468h10.266
		c0.258,0,0.467-0.209,0.467-0.468C83.635,40.979,83.426,40.771,83.169,40.771z"/>
	<path fill="#415463" d="M72.902,43.57h8.399c0.257,0,0.467-0.208,0.467-0.467c0-0.257-0.209-0.467-0.467-0.467h-8.399
		c-0.258,0-0.466,0.209-0.466,0.467C72.436,43.362,72.644,43.57,72.902,43.57z"/>
	<path fill="#415463" d="M83.169,46.371H72.902c-0.258,0-0.466,0.209-0.466,0.467c0,0.257,0.208,0.467,0.466,0.467h10.266
		c0.258,0,0.467-0.209,0.467-0.467C83.635,46.58,83.426,46.371,83.169,46.371z"/>
	<path fill="#415463" d="M72.902,49.171h7.467c0.258,0,0.467-0.209,0.467-0.467c0-0.258-0.209-0.466-0.467-0.466h-7.467
		c-0.258,0-0.466,0.208-0.466,0.466C72.436,48.962,72.644,49.171,72.902,49.171z"/>
	<path fill="#415463" d="M83.169,51.971H72.902c-0.258,0-0.466,0.209-0.466,0.467s0.208,0.467,0.466,0.467h10.266
		c0.258,0,0.467-0.208,0.467-0.467C83.635,52.18,83.426,51.971,83.169,51.971z"/>
	<path fill="#415463" d="M81.301,53.837h-8.399c-0.258,0-0.466,0.209-0.466,0.467c0,0.259,0.208,0.466,0.466,0.466h8.399
		c0.257,0,0.467-0.208,0.467-0.466C81.768,54.047,81.56,53.837,81.301,53.837z"/>
	<path fill="#415463" d="M67.769,37.183h14.934c0.515,0,0.934-0.418,0.934-0.934c0-0.515-0.419-0.934-0.934-0.934H67.769
		c-0.515,0-0.933,0.419-0.933,0.934C66.835,36.765,67.254,37.183,67.769,37.183z"/>
</g>
<g>
	<path fill="#415463" d="M66.765,87.133h1.873c1.033,0,1.873-0.837,1.873-1.867V70.333c0-1.029-0.84-1.867-1.873-1.867h-1.873
		c-1.033,0-1.873,0.837-1.873,1.867v14.933C64.892,86.296,65.732,87.133,66.765,87.133z M66.765,70.333h1.873l-0.002,14.933h-1.87
		L66.765,70.333L66.765,70.333z"/>
	<path fill="#415463" d="M74.256,87.133h1.873c1.033,0,1.873-0.837,1.873-1.867V62.867c0-1.03-0.84-1.867-1.873-1.867h-1.873
		c-1.033,0-1.873,0.837-1.873,1.867v22.399C72.384,86.296,73.224,87.133,74.256,87.133z M74.256,62.867h1.873l-0.003,22.399h-1.87
		V62.867z"/>
	<path fill="#415463" d="M81.748,87.133h1.873c1.033,0,1.873-0.837,1.873-1.867v-9.333c0-1.029-0.84-1.866-1.873-1.866h-1.873
		c-1.033,0-1.873,0.837-1.873,1.866v9.333C79.875,86.296,80.715,87.133,81.748,87.133z M81.748,75.933h1.873l-0.003,9.333h-1.87
		V75.933z"/>
	<path fill="#415463" d="M87.835,88.066H62.551c-0.258,0-0.468,0.21-0.468,0.467c0,0.257,0.209,0.467,0.468,0.467h25.284
		c0.258,0,0.468-0.21,0.468-0.467C88.303,88.276,88.093,88.066,87.835,88.066z"/>
</g>
<path fill="#415463" d="M75.193,91c-7.732,0-14,6.269-14,14s6.268,14,14,14c7.731,0,14-6.269,14-14S82.925,91,75.193,91z
	 M75.193,91.934c7.205,0,13.066,5.86,13.066,13.066c0,2.777-0.876,5.347-2.358,7.466c-0.041-0.035-0.072-0.08-0.121-0.109
	c-1.824-1.082-3.997-1.832-6.479-2.236c1.091-1.461,1.726-3.478,1.726-5.662c0-4.375-2.617-7.933-5.833-7.933
	c-3.216,0-5.833,3.558-5.833,7.933c0,2.183,0.633,4.196,1.722,5.657c-2.56,0.405-4.75,1.144-6.527,2.203
	c-0.043,0.026-0.07,0.066-0.108,0.097c-1.461-2.108-2.322-4.664-2.322-7.417C62.126,97.794,67.988,91.934,75.193,91.934z
	 M75.193,118.066c-3.784,0-7.186-1.626-9.574-4.204c1.948-1.136,4.48-1.85,7.534-2.121c0.257-0.008,0.51-0.121,0.687-0.328
	c0.247-0.289,0.295-0.696,0.122-1.034c-0.087-0.17-0.222-0.305-0.382-0.391c-1.433-0.997-2.354-3.156-2.354-5.53
	c0-3.287,1.816-6.067,3.967-6.067c2.15,0,3.967,2.78,3.967,6.067c0,2.376-0.925,4.538-2.359,5.534
	c-0.142,0.079-0.263,0.195-0.349,0.34c-0.183,0.309-0.171,0.697,0.028,0.994c0.18,0.27,0.477,0.416,0.777,0.416
	c0.001,0,0.002,0,0.003,0c2.905,0.262,5.479,1.011,7.467,2.163C82.341,116.458,78.954,118.066,75.193,118.066z"/>
<g>
	<path fill="#A9BAC7" d="M22.73,2.813h-1.895c-0.363-1.137-1.436-1.927-2.728-1.833L7.696,1.744c-1.505,0.11-2.731,1.43-2.731,2.939
		v19.636c0,1.5,1.163,2.85,2.647,3.071l10.443,1.553c0.138,0.021,0.274,0.03,0.407,0.03c1.168,0,2.116-0.773,2.412-1.849h1.857
		c1.546,0,2.805-1.258,2.805-2.805v-18.7C25.536,4.071,24.277,2.813,22.73,2.813z M19.107,26.423c0,0.453-0.33,0.739-0.777,0.67
		L7.886,25.54c-0.56-0.083-1.052-0.653-1.052-1.221V4.684c0-0.543,0.457-1.035,0.999-1.074l10.48-0.767
		c0.453,0,0.794,0.345,0.794,0.803V26.423z M23.666,24.319c0,0.516-0.42,0.935-0.935,0.935h-1.753V4.684h1.753
		c0.515,0,0.935,0.42,0.935,0.935V24.319z"/>
	<path fill="#A9BAC7" d="M17.016,4.448c-0.001,0-0.002,0-0.003,0L8.792,4.983C8.415,5.007,8.12,5.321,8.12,5.699v5.706
		c0,0.386,0.314,0.7,0.701,0.7h0.001l8.221-0.059c0.386,0,0.699-0.316,0.699-0.702v-6.21C17.744,4.756,17.437,4.448,17.016,4.448z
		 M16.809,11.115l-7.753,0.052V5.903l7.753-0.505V11.115z"/>
	<path fill="#A9BAC7" d="M15.874,13.712c-1.031,0-1.87,0.839-1.87,1.87c0,1.032,0.839,1.87,1.87,1.87c1.031,0,1.87-0.838,1.87-1.87
		C17.744,14.551,16.905,13.712,15.874,13.712z M15.874,16.518c-0.515,0-0.935-0.42-0.935-0.935s0.42-0.935,0.935-0.935
		s0.935,0.42,0.935,0.935S16.389,16.518,15.874,16.518z"/>
</g>
<g>
	<path fill="#A9BAC7" d="M8.718,40.333c-1.03,0-1.867,0.837-1.867,1.867c0,1.03,0.837,1.867,1.867,1.867
		c1.03,0,1.867-0.837,1.867-1.867C10.585,41.17,9.748,40.333,8.718,40.333z M8.718,43.134c-0.514,0-0.934-0.42-0.934-0.934
		c0-0.514,0.42-0.934,0.934-0.934c0.514,0,0.934,0.419,0.934,0.934C9.652,42.715,9.231,43.134,8.718,43.134z"/>
	<path fill="#A9BAC7" d="M8.718,45.934c-1.03,0-1.867,0.837-1.867,1.866c0,1.03,0.837,1.867,1.867,1.867
		c1.03,0,1.867-0.837,1.867-1.867C10.585,46.77,9.748,45.934,8.718,45.934z M8.718,48.733c-0.514,0-0.934-0.419-0.934-0.934
		c0-0.514,0.42-0.934,0.934-0.934c0.514,0,0.934,0.42,0.934,0.934C9.652,48.314,9.231,48.733,8.718,48.733z"/>
	<path fill="#A9BAC7" d="M8.718,51.533c-1.03,0-1.867,0.837-1.867,1.867c0,1.03,0.837,1.866,1.867,1.866
		c1.03,0,1.867-0.837,1.867-1.866C10.585,52.37,9.748,51.533,8.718,51.533z M8.718,54.333c-0.514,0-0.934-0.42-0.934-0.934
		s0.42-0.934,0.934-0.934c0.514,0,0.934,0.42,0.934,0.934C9.652,53.914,9.231,54.333,8.718,54.333z"/>
	<path fill="#A9BAC7" d="M24.584,31H5.917c-1.543,0-2.8,1.256-2.8,2.8v22.4c0,1.543,1.255,2.8,2.8,2.8h18.667
		c1.543,0,2.8-1.257,2.8-2.8V33.8C27.385,32.256,26.128,31,24.584,31z M25.517,56.2c0,0.514-0.419,0.934-0.934,0.934H5.917
		c-0.514,0-0.934-0.419-0.934-0.934V33.8c0-0.515,0.419-0.934,0.934-0.934h18.667c0.514,0,0.934,0.419,0.934,0.934L25.517,56.2
		L25.517,56.2z"/>
	<path fill="#A9BAC7" d="M23.184,40.771H12.917c-0.257,0-0.467,0.208-0.467,0.466c0,0.258,0.209,0.468,0.467,0.468h10.266
		c0.258,0,0.467-0.209,0.467-0.468C23.651,40.979,23.443,40.771,23.184,40.771z"/>
	<path fill="#A9BAC7" d="M12.917,43.57h8.4c0.257,0,0.468-0.208,0.468-0.467c0-0.257-0.209-0.467-0.468-0.467h-8.4
		c-0.257,0-0.467,0.209-0.467,0.467C12.451,43.362,12.66,43.57,12.917,43.57z"/>
	<path fill="#A9BAC7" d="M23.184,46.372H12.917c-0.257,0-0.467,0.209-0.467,0.467c0,0.258,0.209,0.467,0.467,0.467h10.266
		c0.258,0,0.467-0.208,0.467-0.467C23.651,46.58,23.443,46.372,23.184,46.372z"/>
	<path fill="#A9BAC7" d="M12.917,49.171h7.467c0.257,0,0.468-0.209,0.468-0.467c0-0.258-0.21-0.466-0.468-0.466h-7.467
		c-0.257,0-0.467,0.208-0.467,0.466C12.451,48.962,12.66,49.171,12.917,49.171z"/>
	<path fill="#A9BAC7" d="M23.184,51.971H12.917c-0.257,0-0.467,0.209-0.467,0.467s0.209,0.467,0.467,0.467h10.266
		c0.258,0,0.467-0.208,0.467-0.467C23.651,52.18,23.443,51.971,23.184,51.971z"/>
	<path fill="#A9BAC7" d="M21.317,53.837h-8.4c-0.257,0-0.467,0.209-0.467,0.467c0,0.259,0.209,0.466,0.467,0.466h8.4
		c0.257,0,0.468-0.208,0.468-0.466C21.785,54.047,21.576,53.837,21.317,53.837z"/>
	<path fill="#A9BAC7" d="M7.784,37.184h14.934c0.515,0,0.933-0.418,0.933-0.934c0-0.515-0.418-0.934-0.933-0.934H7.784
		c-0.515,0-0.934,0.419-0.934,0.934C6.851,36.765,7.27,37.184,7.784,37.184z"/>
</g>
<g>
	<path fill="#A9BAC7" d="M6.822,87.133h1.873c1.033,0,1.873-0.837,1.873-1.867V70.333c0-1.029-0.84-1.867-1.873-1.867H6.822
		c-1.033,0-1.873,0.837-1.873,1.867v14.933C4.949,86.296,5.789,87.133,6.822,87.133z M6.822,70.333h1.873L8.692,85.267h-1.87V70.333
		z"/>
	<path fill="#A9BAC7" d="M14.313,87.133h1.873c1.033,0,1.873-0.837,1.873-1.867V62.867c0-1.03-0.84-1.867-1.873-1.867h-1.873
		c-1.033,0-1.873,0.837-1.873,1.867v22.399C12.44,86.296,13.281,87.133,14.313,87.133z M14.313,62.867h1.873l-0.003,22.399h-1.87
		V62.867z"/>
	<path fill="#A9BAC7" d="M21.805,87.133h1.873c1.033,0,1.873-0.837,1.873-1.867v-9.333c0-1.029-0.84-1.866-1.873-1.866h-1.873
		c-1.033,0-1.873,0.837-1.873,1.866v9.333C19.932,86.296,20.772,87.133,21.805,87.133z M21.805,75.933h1.873l-0.002,9.333h-1.87
		L21.805,75.933L21.805,75.933z"/>
	<path fill="#A9BAC7" d="M27.892,88.066H2.608c-0.258,0-0.468,0.21-0.468,0.467C2.14,88.791,2.35,89,2.608,89h25.284
		c0.258,0,0.468-0.209,0.468-0.467C28.36,88.275,28.15,88.066,27.892,88.066z"/>
</g>
<path fill="#A9BAC7" d="M15.25,91c-7.731,0-14,6.269-14,14s6.269,14,14,14s14-6.269,14-14S22.981,91,15.25,91z M15.25,91.934
	c7.205,0,13.066,5.86,13.066,13.066c0,2.777-0.876,5.347-2.358,7.466c-0.042-0.035-0.072-0.08-0.121-0.109
	c-1.825-1.082-3.998-1.832-6.479-2.236c1.091-1.461,1.726-3.478,1.726-5.662c0-4.375-2.617-7.933-5.833-7.933
	s-5.833,3.558-5.833,7.933c0,2.183,0.633,4.196,1.722,5.657c-2.559,0.405-4.749,1.144-6.526,2.203
	c-0.043,0.026-0.071,0.066-0.108,0.097c-1.461-2.108-2.322-4.664-2.322-7.417C2.184,97.794,8.045,91.934,15.25,91.934z
	 M15.25,118.066c-3.784,0-7.186-1.626-9.574-4.204c1.949-1.136,4.48-1.85,7.534-2.121c0.257-0.008,0.51-0.121,0.687-0.328
	c0.247-0.289,0.295-0.696,0.122-1.034c-0.087-0.17-0.221-0.305-0.382-0.391c-1.433-0.997-2.355-3.156-2.355-5.53
	c0-3.287,1.816-6.067,3.967-6.067s3.967,2.78,3.967,6.067c0,2.376-0.924,4.538-2.359,5.534c-0.142,0.079-0.263,0.195-0.348,0.34
	c-0.183,0.309-0.172,0.697,0.028,0.994c0.18,0.27,0.476,0.416,0.777,0.416c0.001,0,0.002,0,0.003,0
	c2.905,0.262,5.479,1.011,7.466,2.163C22.397,116.458,19.011,118.066,15.25,118.066z"/>
<path fill="#A9BAC7" d="M28.183,167.111c0.018-0.025,0.029-0.057,0.046-0.084c0.05-0.084,0.1-0.168,0.138-0.26
	c0.016-0.037,0.023-0.078,0.037-0.117c0.029-0.084,0.06-0.166,0.077-0.256c0.026-0.129,0.04-0.27,0.04-0.396
	s-0.014-0.268-0.04-0.396c-0.018-0.09-0.048-0.172-0.077-0.256c-0.014-0.039-0.021-0.08-0.037-0.117
	c-0.038-0.092-0.088-0.176-0.138-0.26c-0.017-0.027-0.028-0.059-0.046-0.085c-0.073-0.108-0.156-0.21-0.249-0.304l-6.499-6.498
	c-0.781-0.781-2.048-0.781-2.828,0c-0.781,0.781-0.781,2.047,0,2.828l3.085,3.09H4.479c-1.104,0-2,0.896-2,2s0.896,2,2,2h17.213
	l-3.086,3.086c-0.781,0.781-0.781,2.047,0,2.828c0.39,0.391,0.902,0.586,1.414,0.586s1.023-0.195,1.414-0.586l6.499-6.498
	C28.026,167.322,28.109,167.221,28.183,167.111z"/>
<path fill="#A9BAC7" d="M2.817,134.889c-0.018,0.025-0.029,0.057-0.046,0.084c-0.05,0.084-0.1,0.168-0.138,0.26
	c-0.016,0.037-0.023,0.078-0.037,0.117c-0.029,0.084-0.06,0.166-0.077,0.256c-0.026,0.129-0.04,0.27-0.04,0.396
	s0.014,0.268,0.04,0.396c0.018,0.09,0.048,0.172,0.077,0.256c0.014,0.039,0.021,0.08,0.037,0.117
	c0.038,0.092,0.088,0.176,0.138,0.26c0.017,0.027,0.028,0.059,0.046,0.085c0.073,0.108,0.156,0.21,0.249,0.304l6.499,6.498
	c0.781,0.781,2.048,0.781,2.828,0c0.781-0.781,0.781-2.047,0-2.828L9.308,138h17.213c1.104,0,2-0.896,2-2s-0.896-2-2-2H9.308
	l3.086-3.086c0.781-0.781,0.781-2.047,0-2.828c-0.39-0.391-0.902-0.586-1.414-0.586s-1.023,0.195-1.414,0.586l-6.499,6.498
	C2.974,134.678,2.891,134.779,2.817,134.889z"/>
<path fill="#FFFFFF" d="M32.817,134.889c-0.018,0.025-0.029,0.057-0.046,0.084c-0.05,0.084-0.1,0.168-0.138,0.26
	c-0.016,0.037-0.023,0.078-0.037,0.117c-0.029,0.084-0.06,0.166-0.077,0.256c-0.026,0.129-0.04,0.27-0.04,0.396
	s0.014,0.268,0.04,0.396c0.018,0.09,0.048,0.172,0.077,0.256c0.014,0.039,0.021,0.08,0.037,0.117
	c0.038,0.092,0.088,0.176,0.138,0.26c0.017,0.027,0.028,0.059,0.046,0.085c0.073,0.108,0.156,0.21,0.249,0.304l6.499,6.498
	c0.781,0.781,2.048,0.781,2.828,0c0.781-0.781,0.781-2.047,0-2.828L39.308,138h17.213c1.104,0,2-0.896,2-2s-0.896-2-2-2H39.308
	l3.086-3.086c0.781-0.781,0.781-2.047,0-2.828c-0.39-0.391-0.902-0.586-1.414-0.586s-1.023,0.195-1.414,0.586l-6.499,6.498
	C32.974,134.678,32.891,134.779,32.817,134.889z"/>
<path fill="#88DB81" d="M75.25,120.05c-8.257,0-14.95,6.693-14.95,14.95s6.693,14.95,14.95,14.95S90.2,143.257,90.2,135
	S83.507,120.05,75.25,120.05z M78.958,127.5c0.829,0,1.5,1.062,1.5,2.375s-0.671,2.375-1.5,2.375c-0.828,0-1.5-1.062-1.5-2.375
	S78.13,127.5,78.958,127.5z M71.542,127.5c0.829,0,1.5,1.062,1.5,2.375s-0.671,2.375-1.5,2.375c-0.828,0-1.5-1.062-1.5-2.375
	S70.713,127.5,71.542,127.5z M75.25,143.488c-3.299,0-6.201-1.687-7.9-4.238h15.803C81.452,141.805,78.548,143.488,75.25,143.488z"
	/>
<path fill="#46C075" d="M75.25,150.05c-8.257,0-14.95,6.693-14.95,14.95s6.693,14.95,14.95,14.95S90.2,173.257,90.2,165
	S83.507,150.05,75.25,150.05z M78.958,157.5c0.829,0,1.5,1.062,1.5,2.375s-0.671,2.375-1.5,2.375c-0.828,0-1.5-1.062-1.5-2.375
	S78.13,157.5,78.958,157.5z M71.542,157.5c0.829,0,1.5,1.062,1.5,2.375s-0.671,2.375-1.5,2.375c-0.828,0-1.5-1.062-1.5-2.375
	S70.713,157.5,71.542,157.5z M75.25,173.488c-3.299,0-6.201-1.687-7.9-4.238h15.803C81.452,171.805,78.548,173.488,75.25,173.488z"
	/>
<path fill="#FDB343" d="M75.25,180.05c-8.257,0-14.95,6.693-14.95,14.95s6.693,14.95,14.95,14.95S90.2,203.257,90.2,195
	S83.507,180.05,75.25,180.05z M77.025,186.076l-0.119,3.191l-0.504,7.344h-2.305l-0.504-7.344l-0.119-3.191H77.025z M75.25,203.82
	c-1.225,0-2.137-0.961-2.137-2.209c0-1.271,0.912-2.231,2.137-2.231s2.137,0.96,2.137,2.231
	C77.387,202.859,76.475,203.82,75.25,203.82z"/>
<path fill="#FD7F3F" d="M75.25,210.05c-8.257,0-14.95,6.693-14.95,14.95s6.693,14.95,14.95,14.95S90.2,233.257,90.2,225
	S83.507,210.05,75.25,210.05z M77.025,216.076l-0.119,3.191l-0.504,7.344h-2.305l-0.504-7.344l-0.119-3.191H77.025z M75.25,233.82
	c-1.225,0-2.137-0.961-2.137-2.209c0-1.271,0.912-2.231,2.137-2.231s2.137,0.96,2.137,2.231
	C77.387,232.859,76.475,233.82,75.25,233.82z"/>
<g>
	<path fill="#505050" d="M107.121,56.524c-0.11,0-0.224-0.012-0.334-0.035c-3.249-0.666-6.207-2.446-8.326-5.016
		c-2.15-2.607-3.336-5.906-3.336-9.29c0-3.353,1.165-6.628,3.279-9.222c2.085-2.557,4.998-4.348,8.205-5.047
		c0.895-0.194,1.777,0.373,1.973,1.27c0.195,0.894-0.373,1.777-1.268,1.972c-2.476,0.539-4.727,1.923-6.34,3.902
		c-1.633,2.003-2.531,4.533-2.531,7.125c0,2.616,0.914,5.165,2.576,7.177c1.639,1.988,3.924,3.365,6.432,3.878
		c0.896,0.183,1.477,1.06,1.291,1.958C108.582,55.982,107.893,56.524,107.121,56.524z"/>
	<path fill="#505050" d="M111.066,50.186c-4.412,0-8.002-3.59-8.002-8.002c0-4.413,3.59-8.003,8.002-8.003
		c0.917,0,1.659,0.744,1.659,1.659c0,0.916-0.742,1.659-1.659,1.659c-2.584,0-4.686,2.102-4.686,4.685s2.102,4.685,4.686,4.685
		c0.917,0,1.659,0.743,1.659,1.659S111.982,50.186,111.066,50.186z"/>
	<circle fill="#505050" cx="113.855" cy="42.184" r="2.222"/>
</g>
<g>
	<path fill="#505050" d="M138.557,36.718c2.524,0,4.477,1.675,4.496,1.692l0.123,0.107l1.965-4.062l-0.08-0.062
		c-0.026-0.02-2.604-1.958-6.881-1.958c-3.005,0-5.74,1.142-7.701,3.216c-1.832,1.939-2.885,4.61-2.885,7.327
		c0,5.787,4.284,9.829,10.418,9.829c4.831,0,6.977-2.377,7.066-2.479l0.054-0.061l-1.7-3.762l-0.129,0.12
		c-0.021,0.019-2.056,1.898-4.914,1.898c-3.113,0-5.125-2.292-5.125-5.84C133.262,39.116,135.391,36.718,138.557,36.718z"/>
	<path fill="#505050" d="M165.814,46.339V32.94h-5.459v12.544c-1.254,1.1-3.09,2.536-4.707,2.536c-1.381,0-1.849-0.901-1.849-3.572
		V32.94h-5.502v13.987c0,5.116,3.369,5.88,5.377,5.88c3.337,0,5.841-1.935,7.134-3.215c0.184,1.339,0.553,2.975,0.558,2.992
		l0.024,0.106l5.295-0.485l-0.035-0.141C166.643,52.03,165.814,48.607,165.814,46.339z"/>
	<path fill="#505050" d="M181.773,32.436c-2.717,0-4.6,2.18-5.588,3.718v-3.656l-5.291,0.882v18.924h5.5V40.749
		c0.793-1.16,2.397-3.064,4.371-3.064c0.885,0,1.748,0.364,1.758,0.368l0.146,0.062l0.866-5.197l0.015-0.086l-0.075-0.043
		C183.449,32.774,182.846,32.436,181.773,32.436z"/>
	<path fill="#505050" d="M197.104,32.436c-2.719,0-4.6,2.179-5.588,3.717v-3.656l-5.291,0.882v18.924h5.502V40.749
		c0.791-1.16,2.395-3.064,4.369-3.064c0.887,0,1.748,0.364,1.758,0.368l0.146,0.062l0.867-5.197l0.015-0.086l-0.076-0.043
		C198.779,32.774,198.174,32.436,197.104,32.436z"/>
	<rect x="201.639" y="32.94" fill="#505050" width="5.5" height="19.363"/>
	<path fill="#505050" d="M204.409,29.031c1.85,0,3.19-1.289,3.19-3.065c0-1.776-1.342-3.066-3.19-3.066
		c-1.874,0-3.233,1.29-3.233,3.066C201.176,27.742,202.535,29.031,204.409,29.031z"/>
</g>
<g>
	<path fill="#FFFFFF" d="M107.121,91.524c-0.11,0-0.224-0.012-0.334-0.035c-3.249-0.666-6.207-2.446-8.326-5.016
		c-2.15-2.607-3.336-5.906-3.336-9.29c0-3.353,1.165-6.628,3.279-9.222c2.085-2.557,4.998-4.348,8.205-5.047
		c0.895-0.194,1.777,0.373,1.973,1.27c0.195,0.894-0.373,1.777-1.268,1.972c-2.476,0.539-4.727,1.923-6.34,3.902
		c-1.633,2.003-2.531,4.533-2.531,7.125c0,2.616,0.914,5.165,2.576,7.177c1.639,1.988,3.924,3.365,6.432,3.878
		c0.896,0.183,1.477,1.06,1.291,1.958C108.582,90.982,107.893,91.524,107.121,91.524z"/>
	<path fill="#FFFFFF" d="M111.066,85.186c-4.412,0-8.002-3.59-8.002-8.002c0-4.413,3.59-8.003,8.002-8.003
		c0.917,0,1.659,0.744,1.659,1.659c0,0.916-0.742,1.659-1.659,1.659c-2.584,0-4.686,2.102-4.686,4.685s2.102,4.685,4.686,4.685
		c0.917,0,1.659,0.743,1.659,1.659S111.982,85.186,111.066,85.186z"/>
	<circle fill="#FFFFFF" cx="113.855" cy="77.184" r="2.222"/>
</g>
<g>
	<path fill="#FFFFFF" d="M138.557,71.718c2.524,0,4.477,1.675,4.496,1.692l0.123,0.107l1.965-4.062l-0.08-0.062
		c-0.026-0.02-2.604-1.958-6.881-1.958c-3.005,0-5.74,1.142-7.701,3.216c-1.832,1.939-2.885,4.61-2.885,7.327
		c0,5.787,4.284,9.829,10.418,9.829c4.831,0,6.977-2.377,7.066-2.479l0.054-0.061l-1.7-3.762l-0.129,0.12
		c-0.021,0.019-2.056,1.898-4.914,1.898c-3.113,0-5.125-2.292-5.125-5.84C133.262,74.116,135.391,71.718,138.557,71.718z"/>
	<path fill="#FFFFFF" d="M165.814,81.339V67.94h-5.459v12.544c-1.254,1.1-3.09,2.536-4.707,2.536c-1.381,0-1.849-0.901-1.849-3.572
		V67.94h-5.502v13.987c0,5.116,3.369,5.88,5.377,5.88c3.337,0,5.841-1.935,7.134-3.215c0.184,1.339,0.553,2.975,0.558,2.992
		l0.024,0.106l5.295-0.485l-0.035-0.141C166.643,87.03,165.814,83.607,165.814,81.339z"/>
	<path fill="#FFFFFF" d="M181.773,67.436c-2.717,0-4.6,2.18-5.588,3.718v-3.656l-5.291,0.882v18.924h5.5V75.749
		c0.793-1.16,2.397-3.064,4.371-3.064c0.885,0,1.748,0.364,1.758,0.368l0.146,0.062l0.866-5.197l0.015-0.086l-0.075-0.043
		C183.449,67.774,182.846,67.436,181.773,67.436z"/>
	<path fill="#FFFFFF" d="M197.104,67.436c-2.719,0-4.6,2.179-5.588,3.717v-3.656l-5.291,0.882v18.924h5.502V75.749
		c0.791-1.16,2.395-3.064,4.369-3.064c0.887,0,1.748,0.364,1.758,0.368l0.146,0.062l0.867-5.197l0.015-0.086l-0.076-0.043
		C198.779,67.774,198.174,67.436,197.104,67.436z"/>
	<rect x="201.639" y="67.94" fill="#FFFFFF" width="5.5" height="19.363"/>
	<path fill="#FFFFFF" d="M204.409,64.031c1.85,0,3.19-1.289,3.19-3.065c0-1.776-1.342-3.066-3.19-3.066
		c-1.874,0-3.233,1.29-3.233,3.066C201.176,62.742,202.535,64.031,204.409,64.031z"/>
</g>
<g>
	<path fill="#C45906" d="M14.289,195.703c0.822-0.796,1.362-2.049,1.362-3.473c0-2.41-1.521-4.363-3.397-4.363
		c-1.875,0-3.397,1.953-3.397,4.363c0,1.424,0.54,2.677,1.362,3.473c-2.953,0.658-5.129,2.711-5.278,5.176
		C7.065,202.215,9.566,203,12.253,203c2.688,0,5.188-0.785,7.314-2.121C19.418,198.414,17.241,196.361,14.289,195.703z"/>
	<path fill="#C45906" d="M8.49,195.126c-0.446-0.856-0.689-1.854-0.689-2.896c0-2.297,1.177-4.252,2.831-5.045
		c0.204-0.557,0.329-1.166,0.329-1.821c0-2.41-1.521-4.364-3.397-4.364c-1.875,0-3.397,1.954-3.397,4.364
		c0,1.423,0.54,2.677,1.362,3.474c-2.953,0.658-5.129,2.71-5.278,5.176c1.894,1.189,4.088,1.938,6.445,2.09
		C7.233,195.719,7.834,195.389,8.49,195.126z"/>
	<path fill="#C45906" d="M16.706,192.23c0,1.041-0.243,2.039-0.689,2.896c0.655,0.263,1.257,0.593,1.794,0.976
		c2.354-0.149,4.546-0.898,6.438-2.088c-0.149-2.466-2.326-4.518-5.278-5.176c0.822-0.797,1.362-2.051,1.362-3.475
		c0-2.409-1.521-4.363-3.397-4.363s-3.397,1.954-3.397,4.363c0,0.654,0.125,1.265,0.328,1.818
		C15.524,187.975,16.706,189.932,16.706,192.23z"/>
</g>
<g>
	<circle fill="#C45906" cx="30.466" cy="189.66" r="1.493"/>
	<circle fill="#C45906" cx="30.549" cy="194.39" r="1.493"/>
	<circle fill="#C45906" cx="30.549" cy="199.036" r="1.493"/>
	<path fill="#C45906" d="M44.092,180.05H28.158c-1.317,0-2.39,1.073-2.39,2.392v19.119c0,1.316,1.072,2.391,2.39,2.391h15.934
		c1.317,0,2.39-1.073,2.39-2.391v-19.121C46.482,181.123,45.409,180.05,44.092,180.05z M44.888,201.561
		c0,0.438-0.358,0.797-0.797,0.797H28.158c-0.438,0-0.796-0.358-0.796-0.797v-19.121c0-0.438,0.358-0.797,0.796-0.797h15.934
		c0.439,0,0.797,0.358,0.797,0.797L44.888,201.561z"/>
	<path fill="#C45906" d="M42.896,188.391h-8.764c-0.22,0-0.399,0.178-0.399,0.397c0,0.219,0.179,0.399,0.399,0.399h8.763
		c0.22,0,0.398-0.18,0.398-0.399C43.295,188.568,43.118,188.391,42.896,188.391z"/>
	<path fill="#C45906" d="M34.133,190.779h7.17c0.22,0,0.398-0.178,0.398-0.398c0-0.219-0.178-0.396-0.398-0.396h-7.17
		c-0.22,0-0.399,0.179-0.399,0.396C33.734,190.602,33.913,190.779,34.133,190.779z"/>
	<path fill="#C45906" d="M42.896,193.171h-8.764c-0.22,0-0.399,0.179-0.399,0.397c0,0.222,0.179,0.399,0.399,0.399h8.763
		c0.22,0,0.398-0.179,0.398-0.399C43.295,193.348,43.118,193.171,42.896,193.171z"/>
	<path fill="#C45906" d="M34.133,195.561h6.373c0.22,0,0.399-0.178,0.399-0.398s-0.179-0.398-0.399-0.398h-6.373
		c-0.22,0-0.399,0.178-0.399,0.398S33.913,195.561,34.133,195.561z"/>
	<path fill="#C45906" d="M42.896,197.951h-8.764c-0.22,0-0.399,0.178-0.399,0.396s0.179,0.397,0.399,0.397h8.763
		c0.22,0,0.398-0.179,0.398-0.397C43.295,198.129,43.118,197.951,42.896,197.951z"/>
	<path fill="#C45906" d="M41.303,199.543h-7.17c-0.22,0-0.399,0.178-0.399,0.398c0,0.22,0.179,0.397,0.399,0.397h7.17
		c0.22,0,0.398-0.178,0.398-0.397C41.702,199.723,41.523,199.543,41.303,199.543z"/>
	<path fill="#C45906" d="M42.498,183.734H29.751c-0.44,0-0.797,0.356-0.797,0.798c0,0.438,0.358,0.797,0.797,0.797h12.747
		c0.44,0,0.797-0.356,0.797-0.797S42.938,183.734,42.498,183.734z"/>
</g>
<g>
	<path fill="#C45906" d="M103.928,111.261l-3.261,3.262l-0.969-0.97c-0.391-0.391-1.023-0.391-1.414,0
		c-0.391,0.391-0.391,1.023,0,1.414l1.676,1.677c0.188,0.188,0.442,0.293,0.707,0.293s0.52-0.105,0.707-0.293l3.968-3.969
		c0.391-0.391,0.391-1.023,0-1.414C104.951,110.87,104.319,110.87,103.928,111.261z"/>
	<path fill="#C45906" d="M113.243,113h-3.489v-2c0-2.481-2.019-4.5-4.5-4.5h-2.004V103c0-0.553-0.448-1-1-1s-1,0.447-1,1v3.5h-1.996
		c-2.481,0-4.5,2.019-4.5,4.5v2H91.25c-0.552,0-1,0.447-1,1s0.448,1,1,1h3.504v2c0,2.481,2.019,4.5,4.5,4.5h1.996v3.5
		c0,0.553,0.448,1,1,1s1-0.447,1-1v-3.5h2.004c2.481,0,4.5-2.019,4.5-4.5v-2h3.489c0.552,0,1-0.447,1-1S113.795,113,113.243,113z
		 M108.754,117c0,1.93-1.57,3.5-3.5,3.5h-6c-1.93,0-3.5-1.57-3.5-3.5v-6c0-1.93,1.57-3.5,3.5-3.5h6c1.93,0,3.5,1.57,3.5,3.5V117z"/>
</g>
<g>
	<path fill="#C45906" d="M157.254,119c0,1.1-0.9,2-2,2h-10c-1.1,0-2-0.9-2-2v-10c0-1.1,0.9-2,2-2h10c1.1,0,2,0.9,2,2V119z"/>
</g>
<g>
	<path fill="#C45906" d="M121.48,107.454c-0.985-0.489-1.791,0.011-1.791,1.11v11c0,1.1,0.804,1.596,1.787,1.101l11.426-5.75
		c0.984-0.495,0.98-1.3-0.004-1.789L121.48,107.454z"/>
</g>
<g>
	<path fill="#A2A2A2" d="M103.928,135.261l-3.261,3.263l-0.969-0.971c-0.391-0.391-1.023-0.391-1.414,0
		c-0.391,0.391-0.391,1.023,0,1.414l1.676,1.678c0.188,0.188,0.442,0.293,0.707,0.293s0.52-0.105,0.707-0.293l3.968-3.97
		c0.391-0.391,0.391-1.022,0-1.414C104.951,134.87,104.319,134.87,103.928,135.261z"/>
	<path fill="#A2A2A2" d="M113.243,137h-3.489v-2c0-2.48-2.019-4.5-4.5-4.5h-2.004V127c0-0.553-0.448-1-1-1s-1,0.447-1,1v3.5h-1.996
		c-2.481,0-4.5,2.02-4.5,4.5v2H91.25c-0.552,0-1,0.447-1,1s0.448,1,1,1h3.504v2c0,2.48,2.019,4.5,4.5,4.5h1.996v3.5
		c0,0.553,0.448,1,1,1s1-0.447,1-1v-3.5h2.004c2.481,0,4.5-2.02,4.5-4.5v-2h3.489c0.552,0,1-0.447,1-1S113.795,137,113.243,137z
		 M108.754,141c0,1.93-1.57,3.5-3.5,3.5h-6c-1.93,0-3.5-1.57-3.5-3.5v-6c0-1.93,1.57-3.5,3.5-3.5h6c1.93,0,3.5,1.57,3.5,3.5V141z"/>
</g>
<g>
	<path fill="#A2A2A2" d="M157.254,143c0,1.1-0.9,2-2,2h-10c-1.1,0-2-0.9-2-2v-10c0-1.1,0.9-2,2-2h10c1.1,0,2,0.9,2,2V143z"/>
</g>
<g>
	<path fill="#A2A2A2" d="M121.48,131.454c-0.985-0.489-1.791,0.011-1.791,1.11v11c0,1.1,0.804,1.596,1.787,1.101l11.426-5.75
		c0.984-0.495,0.98-1.3-0.004-1.789L121.48,131.454z"/>
</g>
<g>
	<path fill="#C45906" d="M46.189,216"/>
</g>
</svg>
