<svg xmlns="http://www.w3.org/2000/svg" viewBox="0 0 114 34">
<path fill="#505050" d="M11.996,33.624c-0.11,0-0.224-0.012-0.334-0.035c-3.249-0.666-6.207-2.446-8.326-5.016
	C1.186,25.966,0,22.667,0,19.284c0-3.353,1.165-6.628,3.279-9.222c2.085-2.557,4.998-4.348,8.205-5.047
	c0.895-0.194,1.777,0.373,1.973,1.27c0.195,0.894-0.373,1.777-1.268,1.972c-2.476,0.539-4.727,1.923-6.34,3.902
	c-1.633,2.003-2.531,4.533-2.531,7.125c0,2.616,0.914,5.165,2.576,7.177c1.639,1.988,3.924,3.365,6.432,3.878
	c0.896,0.183,1.477,1.06,1.291,1.958C13.457,33.083,12.768,33.624,11.996,33.624z"/>
<path fill="#505050" d="M15.941,27.286c-4.412,0-8.002-3.59-8.002-8.002c0-4.413,3.59-8.003,8.002-8.003
	c0.916,0,1.658,0.744,1.658,1.659c0,0.916-0.742,1.659-1.658,1.659c-2.584,0-4.686,2.102-4.686,4.685s2.102,4.685,4.686,4.685
	c0.916,0,1.658,0.743,1.658,1.659S16.857,27.286,15.941,27.286z"/>
<circle fill="#505050" cx="18.731" cy="19.284" r="2.222"/>
<g>
	<path fill="#505050" d="M43.431,13.818c2.525,0,4.477,1.675,4.497,1.692l0.124,0.107l1.964-4.062l-0.081-0.062
		c-0.026-0.02-2.604-1.958-6.881-1.958c-3.004,0-5.739,1.142-7.7,3.216c-1.833,1.939-2.885,4.61-2.885,7.327
		c0,5.787,4.284,9.829,10.417,9.829c4.832,0,6.978-2.377,7.067-2.479l0.053-0.061l-1.701-3.762l-0.127,0.12
		c-0.021,0.019-2.056,1.898-4.914,1.898c-3.114,0-5.126-2.292-5.126-5.84C38.137,16.216,40.265,13.818,43.431,13.818z"/>
	<path fill="#505050" d="M70.689,23.439V10.04H65.23v12.544c-1.254,1.1-3.089,2.536-4.706,2.536c-1.382,0-1.849-0.901-1.849-3.572
		V10.04h-5.501v13.987c0,5.116,3.368,5.88,5.376,5.88c3.336,0,5.841-1.935,7.134-3.215c0.183,1.339,0.553,2.975,0.557,2.992
		l0.024,0.106l5.295-0.485l-0.035-0.141C71.518,29.13,70.689,25.708,70.689,23.439z"/>
	<path fill="#505050" d="M86.648,9.536c-2.717,0-4.599,2.18-5.588,3.718V9.597l-5.291,0.882v18.924h5.501V17.849
		c0.793-1.16,2.397-3.064,4.37-3.064c0.886,0,1.749,0.364,1.758,0.368l0.146,0.062l0.866-5.197l0.015-0.086L88.35,9.889
		C88.324,9.874,87.72,9.536,86.648,9.536z"/>
	<path fill="#505050" d="M101.979,9.536c-2.719,0-4.6,2.179-5.588,3.717V9.597L91.1,10.479v18.924h5.501V17.849
		c0.792-1.16,2.395-3.064,4.37-3.064c0.886,0,1.748,0.364,1.757,0.368l0.146,0.062l0.867-5.197l0.015-0.086l-0.076-0.043
		C103.654,9.874,103.049,9.536,101.979,9.536z"/>
	<rect x="106.513" y="10.04" fill="#505050" width="5.501" height="19.363"/>
	<path fill="#505050" d="M109.284,6.131c1.85,0,3.191-1.289,3.191-3.065S111.134,0,109.284,0c-1.874,0-3.233,1.29-3.233,3.066
		S107.41,6.131,109.284,6.131z"/>
</g>
</svg>
