<?xml version="1.0" encoding="utf-8"?>
<!-- Generator: Adobe Illustrator 16.0.4, SVG Export Plug-In . SVG Version: 6.00 Build 0)  -->
<!DOCTYPE svg PUBLIC "-//W3C//DTD SVG 1.1//EN" "http://www.w3.org/Graphics/SVG/1.1/DTD/svg11.dtd">
<svg version="1.1" xmlns="http://www.w3.org/2000/svg" xmlns:xlink="http://www.w3.org/1999/xlink" x="0px" y="0px" width="221.5px"
	 height="264px" viewBox="0.25 0 221.5 264" enable-background="new 0.25 0 221.5 264" xml:space="preserve">
<g id="Layer_1">
	<path fill="none" stroke="#000000" stroke-linecap="round" stroke-linejoin="round" stroke-miterlimit="10" d="M91.233,11.326"/>
	<path fill="none" stroke="#000000" stroke-linecap="round" stroke-linejoin="round" stroke-miterlimit="10" d="M89.233,12.929"/>
	<g>
		<path fill="#7B94A8" d="M110.25,0h-18c-1.104,0-2,0.896-2,2s0.896,2,2,2h18c1.104,0,2-0.896,2-2S111.354,0,110.25,0z"/>
		<path fill="#7B94A8" d="M110.25,7h-18c-1.104,0-2,0.896-2,2s0.896,2,2,2h18c1.104,0,2-0.896,2-2S111.354,7,110.25,7z"/>
		<path fill="#7B94A8" d="M110.25,14h-18c-1.104,0-2,0.896-2,2s0.896,2,2,2h18c1.104,0,2-0.896,2-2S111.354,14,110.25,14z"/>
	</g>
	<g>
		<path fill="#2D3A44" d="M132.25,0h-18c-1.104,0-2,0.896-2,2s0.896,2,2,2h18c1.104,0,2-0.896,2-2S133.354,0,132.25,0z"/>
		<path fill="#2D3A44" d="M132.25,7h-18c-1.104,0-2,0.896-2,2s0.896,2,2,2h18c1.104,0,2-0.896,2-2S133.354,7,132.25,7z"/>
		<path fill="#2D3A44" d="M132.25,14h-18c-1.104,0-2,0.896-2,2s0.896,2,2,2h18c1.104,0,2-0.896,2-2S133.354,14,132.25,14z"/>
	</g>
	<g>
		<path fill="#FFFFFF" d="M52.732,2.84h-1.895c-0.363-1.137-1.436-1.927-2.728-1.833L37.697,1.771
			c-1.505,0.11-2.731,1.43-2.731,2.939v19.636c0,1.5,1.163,2.85,2.647,3.071l10.443,1.553c0.138,0.021,0.274,0.03,0.407,0.03
			c1.168,0,2.116-0.773,2.412-1.849h1.857c1.546,0,2.805-1.258,2.805-2.805V5.646C55.537,4.098,54.278,2.84,52.732,2.84z
			 M49.108,26.45c0,0.453-0.33,0.739-0.777,0.67l-10.443-1.553c-0.561-0.083-1.053-0.653-1.053-1.221V4.71
			c0-0.543,0.457-1.034,0.999-1.074l10.48-0.767c0.453,0,0.794,0.345,0.794,0.803V26.45z M53.667,24.346
			c0,0.516-0.42,0.935-0.935,0.935h-1.753V4.71h1.753c0.515,0,0.935,0.42,0.935,0.935V24.346z"/>
		<path fill="#FFFFFF" d="M47.017,4.475c-0.001,0-0.002,0-0.003,0L38.793,5.01c-0.376,0.024-0.671,0.338-0.671,0.716v5.706
			c0,0.386,0.314,0.7,0.701,0.7h0.001l8.221-0.059c0.386,0,0.699-0.316,0.699-0.702v-6.21C47.745,4.783,47.438,4.475,47.017,4.475z
			 M46.81,11.142l-7.753,0.052V5.93l7.753-0.505V11.142z"/>
		<path fill="#FFFFFF" d="M45.875,13.739c-1.031,0-1.87,0.839-1.87,1.87c0,1.032,0.839,1.87,1.87,1.87s1.87-0.838,1.87-1.87
			C47.745,14.578,46.906,13.739,45.875,13.739z M45.875,16.544c-0.515,0-0.935-0.42-0.935-0.935c0-0.515,0.42-0.935,0.935-0.935
			s0.935,0.42,0.935,0.935C46.81,16.125,46.39,16.544,45.875,16.544z"/>
	</g>
	<g>
		<path fill="#FFFFFF" d="M38.718,40.333c-1.03,0-1.867,0.837-1.867,1.867c0,1.03,0.837,1.867,1.867,1.867
			c1.029,0,1.866-0.837,1.866-1.867C40.585,41.17,39.748,40.333,38.718,40.333z M38.718,43.134c-0.514,0-0.934-0.42-0.934-0.934
			s0.42-0.934,0.934-0.934s0.934,0.419,0.934,0.934S39.231,43.134,38.718,43.134z"/>
		<path fill="#FFFFFF" d="M38.718,45.934c-1.03,0-1.867,0.837-1.867,1.866c0,1.03,0.837,1.867,1.867,1.867
			c1.029,0,1.866-0.837,1.866-1.867C40.585,46.771,39.748,45.934,38.718,45.934z M38.718,48.733c-0.514,0-0.934-0.419-0.934-0.934
			c0-0.514,0.42-0.934,0.934-0.934s0.934,0.42,0.934,0.934C39.651,48.314,39.231,48.733,38.718,48.733z"/>
		<path fill="#FFFFFF" d="M38.718,51.533c-1.03,0-1.867,0.837-1.867,1.867s0.837,1.866,1.867,1.866c1.029,0,1.866-0.837,1.866-1.866
			C40.585,52.37,39.748,51.533,38.718,51.533z M38.718,54.333c-0.514,0-0.934-0.42-0.934-0.934c0-0.514,0.42-0.934,0.934-0.934
			s0.934,0.42,0.934,0.934C39.651,53.914,39.231,54.333,38.718,54.333z"/>
		<path fill="#FFFFFF" d="M54.585,31H35.918c-1.543,0-2.8,1.256-2.8,2.8V56.2c0,1.543,1.257,2.8,2.8,2.8h18.667
			c1.543,0,2.8-1.257,2.8-2.8V33.8C57.385,32.256,56.128,31,54.585,31z M55.518,56.2c0,0.514-0.419,0.934-0.934,0.934H35.918
			c-0.515,0-0.934-0.419-0.934-0.934V33.8c0-0.515,0.419-0.934,0.934-0.934h18.667c0.514,0,0.934,0.419,0.934,0.934L55.518,56.2
			L55.518,56.2z"/>
		<path fill="#FFFFFF" d="M53.185,40.771H42.917c-0.257,0-0.467,0.208-0.467,0.466c0,0.258,0.21,0.468,0.467,0.468h10.267
			c0.257,0,0.468-0.209,0.468-0.468C53.652,40.979,53.443,40.771,53.185,40.771z"/>
		<path fill="#FFFFFF" d="M42.917,43.57h8.4c0.257,0,0.466-0.208,0.466-0.467c0-0.257-0.208-0.467-0.466-0.467h-8.4
			c-0.257,0-0.467,0.209-0.467,0.467C42.451,43.362,42.66,43.57,42.917,43.57z"/>
		<path fill="#FFFFFF" d="M53.185,46.371H42.917c-0.257,0-0.467,0.209-0.467,0.467c0,0.257,0.21,0.467,0.467,0.467h10.267
			c0.257,0,0.468-0.209,0.468-0.467C53.652,46.58,53.443,46.371,53.185,46.371z"/>
		<path fill="#FFFFFF" d="M42.917,49.171h7.467c0.257,0,0.467-0.209,0.467-0.467c0-0.258-0.208-0.466-0.467-0.466h-7.467
			c-0.257,0-0.467,0.208-0.467,0.466C42.451,48.962,42.66,49.171,42.917,49.171z"/>
		<path fill="#FFFFFF" d="M53.185,51.971H42.917c-0.257,0-0.467,0.209-0.467,0.467s0.21,0.467,0.467,0.467h10.267
			c0.257,0,0.468-0.208,0.468-0.467C53.652,52.18,53.443,51.971,53.185,51.971z"/>
		<path fill="#FFFFFF" d="M51.319,53.837h-8.4c-0.257,0-0.467,0.209-0.467,0.467c0,0.259,0.21,0.466,0.467,0.466h8.4
			c0.257,0,0.466-0.208,0.466-0.466C51.785,54.047,51.576,53.837,51.319,53.837z"/>
		<path fill="#FFFFFF" d="M37.785,37.183h14.933c0.515,0,0.934-0.418,0.934-0.934c0-0.515-0.419-0.934-0.934-0.934H37.785
			c-0.515,0-0.934,0.419-0.934,0.934C36.852,36.765,37.27,37.183,37.785,37.183z"/>
	</g>
	<path fill="#FFFFFF" d="M45.217,121c-7.732,0-14,6.269-14,14s6.268,14,14,14s14-6.269,14-14S52.949,121,45.217,121z
		 M45.217,121.934c7.206,0,13.066,5.86,13.066,13.066c0,2.777-0.876,5.348-2.358,7.467c-0.041-0.035-0.072-0.08-0.121-0.109
		c-1.824-1.082-3.997-1.832-6.479-2.236c1.091-1.461,1.726-3.478,1.726-5.662c0-4.375-2.618-7.933-5.833-7.933
		s-5.833,3.558-5.833,7.933c0,2.184,0.633,4.197,1.722,5.658c-2.559,0.404-4.749,1.144-6.527,2.203
		c-0.042,0.025-0.07,0.066-0.107,0.097c-1.461-2.108-2.322-4.663-2.322-7.417C32.15,127.794,38.011,121.934,45.217,121.934z
		 M45.217,148.066c-3.784,0-7.186-1.626-9.574-4.203c1.949-1.137,4.481-1.85,7.535-2.121c0.256-0.008,0.51-0.121,0.687-0.328
		c0.246-0.289,0.295-0.697,0.122-1.034c-0.087-0.17-0.221-0.305-0.382-0.391c-1.433-0.997-2.355-3.156-2.355-5.53
		c0-3.287,1.816-6.066,3.967-6.066c2.151,0,3.966,2.779,3.966,6.066c0,2.377-0.924,4.539-2.359,5.534
		c-0.141,0.079-0.262,0.195-0.348,0.34c-0.183,0.31-0.172,0.697,0.028,0.994c0.18,0.27,0.477,0.415,0.777,0.415c0,0,0.002,0,0.002,0
		c2.905,0.262,5.48,1.012,7.467,2.164C52.364,146.458,48.978,148.066,45.217,148.066z"/>
	<path fill="#FFFFFF" d="M58.183,197.111c0.018-0.025,0.029-0.057,0.046-0.084c0.05-0.084,0.1-0.168,0.138-0.26
		c0.016-0.037,0.023-0.078,0.037-0.117c0.029-0.084,0.06-0.166,0.077-0.256c0.026-0.129,0.04-0.269,0.04-0.396
		s-0.014-0.268-0.04-0.396c-0.018-0.09-0.048-0.172-0.077-0.256c-0.014-0.039-0.021-0.08-0.037-0.117
		c-0.038-0.092-0.088-0.176-0.138-0.26c-0.017-0.027-0.028-0.059-0.046-0.085c-0.073-0.108-0.156-0.21-0.249-0.304l-6.499-6.498
		c-0.781-0.781-2.048-0.781-2.828,0c-0.781,0.781-0.781,2.047,0,2.828l3.085,3.09H34.479c-1.104,0-2,0.896-2,2s0.896,2,2,2h17.213
		l-3.086,3.086c-0.781,0.781-0.781,2.047,0,2.828c0.39,0.391,0.902,0.586,1.414,0.586s1.023-0.195,1.414-0.586l6.499-6.498
		C58.026,197.322,58.109,197.221,58.183,197.111z"/>
	<g>
		<path fill="#415463" d="M82.673,2.813h-1.895c-0.363-1.137-1.435-1.927-2.728-1.833L67.639,1.744
			c-1.505,0.11-2.731,1.43-2.731,2.939v19.636c0,1.5,1.163,2.85,2.647,3.071l10.443,1.553c0.138,0.021,0.274,0.03,0.407,0.03
			c1.168,0,2.116-0.773,2.412-1.849h1.857c1.546,0,2.805-1.258,2.805-2.805V5.619C85.479,4.071,84.22,2.813,82.673,2.813z
			 M79.05,26.423c0,0.453-0.33,0.739-0.777,0.67L67.831,25.54c-0.562-0.083-1.053-0.653-1.053-1.221V4.684
			c0-0.543,0.457-1.034,0.999-1.074l10.48-0.767c0.453,0,0.794,0.345,0.794,0.803V26.423z M83.608,24.319
			c0,0.516-0.42,0.935-0.935,0.935H80.92V4.684h1.753c0.515,0,0.935,0.42,0.935,0.935V24.319z"/>
		<path fill="#415463" d="M76.958,4.448c-0.001,0-0.002,0-0.003,0l-8.221,0.535c-0.376,0.024-0.671,0.338-0.671,0.716v5.706
			c0,0.386,0.314,0.7,0.701,0.7h0.002l8.221-0.059c0.386,0,0.699-0.316,0.699-0.702v-6.21C77.687,4.756,77.38,4.448,76.958,4.448z
			 M76.751,11.115l-7.753,0.052V5.903l7.753-0.505V11.115z"/>
		<path fill="#415463" d="M75.816,13.712c-1.031,0-1.87,0.839-1.87,1.87c0,1.032,0.839,1.87,1.87,1.87c1.032,0,1.87-0.838,1.87-1.87
			C77.687,14.551,76.848,13.712,75.816,13.712z M75.816,16.518c-0.515,0-0.935-0.42-0.935-0.935c0-0.515,0.42-0.935,0.935-0.935
			c0.515,0,0.935,0.42,0.935,0.935C76.751,16.098,76.332,16.518,75.816,16.518z"/>
	</g>
	<g>
		<path fill="#415463" d="M68.701,40.333c-1.028,0-1.866,0.837-1.866,1.867c0,1.03,0.837,1.867,1.866,1.867
			c1.03,0,1.867-0.837,1.867-1.867C70.569,41.17,69.731,40.333,68.701,40.333z M68.701,43.134c-0.514,0-0.934-0.42-0.934-0.934
			s0.42-0.934,0.934-0.934c0.515,0,0.934,0.419,0.934,0.934S69.216,43.134,68.701,43.134z"/>
		<path fill="#415463" d="M68.701,45.934c-1.028,0-1.866,0.837-1.866,1.866c0,1.03,0.837,1.867,1.866,1.867
			c1.03,0,1.867-0.837,1.867-1.867C70.569,46.771,69.731,45.934,68.701,45.934z M68.701,48.733c-0.514,0-0.934-0.419-0.934-0.934
			c0-0.514,0.42-0.934,0.934-0.934c0.515,0,0.934,0.42,0.934,0.934C69.635,48.314,69.216,48.733,68.701,48.733z"/>
		<path fill="#415463" d="M68.701,51.533c-1.028,0-1.866,0.837-1.866,1.867s0.837,1.866,1.866,1.866c1.03,0,1.867-0.837,1.867-1.866
			C70.569,52.37,69.731,51.533,68.701,51.533z M68.701,54.333c-0.514,0-0.934-0.42-0.934-0.934c0-0.514,0.42-0.934,0.934-0.934
			c0.515,0,0.934,0.42,0.934,0.934C69.635,53.914,69.216,54.333,68.701,54.333z"/>
		<path fill="#415463" d="M84.569,31H65.902c-1.543,0-2.8,1.256-2.8,2.8V56.2c0,1.543,1.257,2.8,2.8,2.8h18.667
			c1.543,0,2.8-1.257,2.8-2.8V33.8C87.368,32.256,86.112,31,84.569,31z M85.501,56.2c0,0.514-0.419,0.934-0.934,0.934H65.902
			c-0.514,0-0.934-0.419-0.934-0.934V33.8c0-0.515,0.419-0.934,0.934-0.934h18.667c0.514,0,0.934,0.419,0.934,0.934L85.501,56.2
			L85.501,56.2z"/>
		<path fill="#415463" d="M83.169,40.771H72.902c-0.258,0-0.466,0.208-0.466,0.466c0,0.258,0.208,0.468,0.466,0.468h10.266
			c0.258,0,0.467-0.209,0.467-0.468C83.635,40.979,83.426,40.771,83.169,40.771z"/>
		<path fill="#415463" d="M72.902,43.57h8.399c0.257,0,0.467-0.208,0.467-0.467c0-0.257-0.209-0.467-0.467-0.467h-8.399
			c-0.258,0-0.466,0.209-0.466,0.467C72.436,43.362,72.644,43.57,72.902,43.57z"/>
		<path fill="#415463" d="M83.169,46.371H72.902c-0.258,0-0.466,0.209-0.466,0.467c0,0.257,0.208,0.467,0.466,0.467h10.266
			c0.258,0,0.467-0.209,0.467-0.467C83.635,46.58,83.426,46.371,83.169,46.371z"/>
		<path fill="#415463" d="M72.902,49.171h7.467c0.258,0,0.467-0.209,0.467-0.467c0-0.258-0.209-0.466-0.467-0.466h-7.467
			c-0.258,0-0.466,0.208-0.466,0.466C72.436,48.962,72.644,49.171,72.902,49.171z"/>
		<path fill="#415463" d="M83.169,51.971H72.902c-0.258,0-0.466,0.209-0.466,0.467s0.208,0.467,0.466,0.467h10.266
			c0.258,0,0.467-0.208,0.467-0.467C83.635,52.18,83.426,51.971,83.169,51.971z"/>
		<path fill="#415463" d="M81.301,53.837h-8.399c-0.258,0-0.466,0.209-0.466,0.467c0,0.259,0.208,0.466,0.466,0.466h8.399
			c0.257,0,0.467-0.208,0.467-0.466C81.768,54.047,81.56,53.837,81.301,53.837z"/>
		<path fill="#415463" d="M67.769,37.183h14.934c0.515,0,0.934-0.418,0.934-0.934c0-0.515-0.419-0.934-0.934-0.934H67.769
			c-0.515,0-0.933,0.419-0.933,0.934C66.835,36.765,67.254,37.183,67.769,37.183z"/>
	</g>
	<path fill="#415463" d="M75.193,121c-7.732,0-14,6.269-14,14s6.268,14,14,14c7.731,0,14-6.269,14-14S82.925,121,75.193,121z
		 M75.193,121.934c7.205,0,13.066,5.86,13.066,13.066c0,2.777-0.876,5.348-2.358,7.467c-0.041-0.035-0.072-0.08-0.121-0.109
		c-1.824-1.082-3.997-1.832-6.479-2.236c1.091-1.461,1.726-3.478,1.726-5.662c0-4.375-2.617-7.933-5.833-7.933
		c-3.216,0-5.833,3.558-5.833,7.933c0,2.184,0.633,4.197,1.722,5.658c-2.56,0.404-4.75,1.144-6.527,2.203
		c-0.043,0.025-0.07,0.066-0.108,0.097c-1.461-2.108-2.322-4.663-2.322-7.417C62.126,127.794,67.988,121.934,75.193,121.934z
		 M75.193,148.066c-3.784,0-7.186-1.626-9.574-4.203c1.948-1.137,4.48-1.85,7.534-2.121c0.257-0.008,0.51-0.121,0.687-0.328
		c0.247-0.289,0.295-0.697,0.122-1.034c-0.087-0.17-0.222-0.305-0.382-0.391c-1.433-0.997-2.354-3.156-2.354-5.53
		c0-3.287,1.816-6.066,3.967-6.066c2.15,0,3.967,2.779,3.967,6.066c0,2.377-0.925,4.539-2.359,5.534
		c-0.142,0.079-0.263,0.195-0.349,0.34c-0.183,0.31-0.171,0.697,0.028,0.994c0.18,0.27,0.477,0.415,0.777,0.415
		c0.001,0,0.002,0,0.003,0c2.905,0.262,5.479,1.012,7.467,2.164C82.341,146.458,78.954,148.066,75.193,148.066z"/>
	<g>
		<path fill="#A9BAC7" d="M22.73,2.813h-1.895c-0.363-1.137-1.436-1.927-2.728-1.833L7.696,1.744
			c-1.505,0.11-2.731,1.43-2.731,2.939v19.636c0,1.5,1.163,2.85,2.647,3.071l10.443,1.553c0.138,0.021,0.274,0.03,0.407,0.03
			c1.168,0,2.116-0.773,2.412-1.849h1.857c1.546,0,2.805-1.258,2.805-2.805V5.619C25.536,4.071,24.277,2.813,22.73,2.813z
			 M19.107,26.423c0,0.453-0.33,0.739-0.777,0.67L7.886,25.54c-0.56-0.083-1.052-0.653-1.052-1.221V4.684
			c0-0.543,0.457-1.035,0.999-1.074l10.48-0.767c0.453,0,0.794,0.345,0.794,0.803V26.423z M23.666,24.319
			c0,0.516-0.42,0.935-0.935,0.935h-1.753V4.684h1.753c0.515,0,0.935,0.42,0.935,0.935V24.319z"/>
		<path fill="#A9BAC7" d="M17.016,4.448c-0.001,0-0.002,0-0.003,0L8.792,4.983C8.415,5.007,8.12,5.321,8.12,5.699v5.706
			c0,0.386,0.314,0.7,0.701,0.7h0.001l8.221-0.059c0.386,0,0.699-0.316,0.699-0.702v-6.21C17.744,4.756,17.437,4.448,17.016,4.448z
			 M16.809,11.115l-7.753,0.052V5.903l7.753-0.505V11.115z"/>
		<path fill="#A9BAC7" d="M15.874,13.712c-1.031,0-1.87,0.839-1.87,1.87c0,1.032,0.839,1.87,1.87,1.87s1.87-0.838,1.87-1.87
			C17.744,14.551,16.905,13.712,15.874,13.712z M15.874,16.518c-0.515,0-0.935-0.42-0.935-0.935c0-0.515,0.42-0.935,0.935-0.935
			s0.935,0.42,0.935,0.935C16.809,16.098,16.389,16.518,15.874,16.518z"/>
	</g>
	<g>
		<path fill="#A9BAC7" d="M8.718,40.333c-1.03,0-1.867,0.837-1.867,1.867c0,1.03,0.837,1.867,1.867,1.867s1.867-0.837,1.867-1.867
			S9.748,40.333,8.718,40.333z M8.718,43.134c-0.514,0-0.934-0.42-0.934-0.934s0.42-0.934,0.934-0.934
			c0.514,0,0.934,0.419,0.934,0.934S9.231,43.134,8.718,43.134z"/>
		<path fill="#A9BAC7" d="M8.718,45.934c-1.03,0-1.867,0.837-1.867,1.866c0,1.03,0.837,1.867,1.867,1.867s1.867-0.837,1.867-1.867
			S9.748,45.934,8.718,45.934z M8.718,48.733c-0.514,0-0.934-0.419-0.934-0.934c0-0.514,0.42-0.934,0.934-0.934
			c0.514,0,0.934,0.42,0.934,0.934C9.652,48.314,9.231,48.733,8.718,48.733z"/>
		<path fill="#A9BAC7" d="M8.718,51.533c-1.03,0-1.867,0.837-1.867,1.867s0.837,1.866,1.867,1.866s1.867-0.837,1.867-1.866
			C10.585,52.37,9.748,51.533,8.718,51.533z M8.718,54.333c-0.514,0-0.934-0.42-0.934-0.934c0-0.514,0.42-0.934,0.934-0.934
			c0.514,0,0.934,0.42,0.934,0.934C9.652,53.914,9.231,54.333,8.718,54.333z"/>
		<path fill="#A9BAC7" d="M24.584,31H5.917c-1.543,0-2.8,1.256-2.8,2.8V56.2c0,1.543,1.255,2.8,2.8,2.8h18.667
			c1.543,0,2.8-1.257,2.8-2.8V33.8C27.385,32.256,26.128,31,24.584,31z M25.517,56.2c0,0.514-0.419,0.934-0.934,0.934H5.917
			c-0.514,0-0.934-0.419-0.934-0.934V33.8c0-0.515,0.419-0.934,0.934-0.934h18.667c0.514,0,0.934,0.419,0.934,0.934L25.517,56.2
			L25.517,56.2z"/>
		<path fill="#A9BAC7" d="M23.184,40.771H12.917c-0.257,0-0.467,0.208-0.467,0.466c0,0.258,0.209,0.468,0.467,0.468h10.266
			c0.258,0,0.467-0.209,0.467-0.468C23.651,40.979,23.443,40.771,23.184,40.771z"/>
		<path fill="#A9BAC7" d="M12.917,43.57h8.4c0.257,0,0.468-0.208,0.468-0.467c0-0.257-0.209-0.467-0.468-0.467h-8.4
			c-0.257,0-0.467,0.209-0.467,0.467C12.451,43.362,12.66,43.57,12.917,43.57z"/>
		<path fill="#A9BAC7" d="M23.184,46.372H12.917c-0.257,0-0.467,0.209-0.467,0.467c0,0.258,0.209,0.467,0.467,0.467h10.266
			c0.258,0,0.467-0.208,0.467-0.467C23.651,46.58,23.443,46.372,23.184,46.372z"/>
		<path fill="#A9BAC7" d="M12.917,49.171h7.467c0.257,0,0.468-0.209,0.468-0.467c0-0.258-0.21-0.466-0.468-0.466h-7.467
			c-0.257,0-0.467,0.208-0.467,0.466C12.451,48.962,12.66,49.171,12.917,49.171z"/>
		<path fill="#A9BAC7" d="M23.184,51.971H12.917c-0.257,0-0.467,0.209-0.467,0.467s0.209,0.467,0.467,0.467h10.266
			c0.258,0,0.467-0.208,0.467-0.467C23.651,52.18,23.443,51.971,23.184,51.971z"/>
		<path fill="#A9BAC7" d="M21.317,53.837h-8.4c-0.257,0-0.467,0.209-0.467,0.467c0,0.259,0.209,0.466,0.467,0.466h8.4
			c0.257,0,0.468-0.208,0.468-0.466C21.785,54.047,21.576,53.837,21.317,53.837z"/>
		<path fill="#A9BAC7" d="M7.784,37.184h14.934c0.515,0,0.933-0.418,0.933-0.934c0-0.515-0.418-0.934-0.933-0.934H7.784
			c-0.515,0-0.934,0.419-0.934,0.934C6.851,36.765,7.27,37.184,7.784,37.184z"/>
	</g>
	<path fill="#A9BAC7" d="M15.25,121c-7.731,0-14,6.269-14,14s6.269,14,14,14s14-6.269,14-14S22.981,121,15.25,121z M15.25,121.934
		c7.205,0,13.066,5.86,13.066,13.066c0,2.777-0.876,5.348-2.358,7.467c-0.042-0.035-0.072-0.08-0.121-0.109
		c-1.825-1.082-3.998-1.832-6.479-2.236c1.091-1.461,1.726-3.478,1.726-5.662c0-4.375-2.617-7.933-5.833-7.933
		s-5.833,3.558-5.833,7.933c0,2.184,0.633,4.197,1.722,5.658c-2.559,0.404-4.749,1.144-6.526,2.203
		c-0.043,0.025-0.071,0.066-0.108,0.097c-1.461-2.108-2.322-4.663-2.322-7.417C2.184,127.794,8.045,121.934,15.25,121.934z
		 M15.25,148.066c-3.784,0-7.186-1.626-9.574-4.203c1.949-1.137,4.48-1.85,7.534-2.121c0.257-0.008,0.51-0.121,0.687-0.328
		c0.247-0.289,0.295-0.697,0.122-1.034c-0.087-0.17-0.221-0.305-0.382-0.391c-1.433-0.997-2.355-3.156-2.355-5.53
		c0-3.287,1.816-6.066,3.967-6.066s3.967,2.779,3.967,6.066c0,2.377-0.924,4.539-2.359,5.534c-0.142,0.079-0.263,0.195-0.348,0.34
		c-0.183,0.31-0.172,0.697,0.028,0.994c0.18,0.27,0.476,0.415,0.777,0.415c0.001,0,0.002,0,0.003,0
		c2.905,0.262,5.479,1.012,7.466,2.164C22.397,146.458,19.011,148.066,15.25,148.066z"/>
	<path fill="#A9BAC7" d="M28.183,197.111c0.018-0.025,0.029-0.057,0.046-0.084c0.05-0.084,0.1-0.168,0.138-0.26
		c0.016-0.037,0.023-0.078,0.037-0.117c0.029-0.084,0.06-0.166,0.077-0.256c0.026-0.129,0.04-0.269,0.04-0.396
		s-0.014-0.268-0.04-0.396c-0.018-0.09-0.048-0.172-0.077-0.256c-0.014-0.039-0.021-0.08-0.037-0.117
		c-0.038-0.092-0.088-0.176-0.138-0.26c-0.017-0.027-0.028-0.059-0.046-0.085c-0.073-0.108-0.156-0.21-0.249-0.304l-6.499-6.498
		c-0.781-0.781-2.048-0.781-2.828,0c-0.781,0.781-0.781,2.047,0,2.828l3.085,3.09H4.479c-1.104,0-2,0.896-2,2s0.896,2,2,2h17.213
		l-3.086,3.086c-0.781,0.781-0.781,2.047,0,2.828c0.39,0.391,0.902,0.586,1.414,0.586s1.023-0.195,1.414-0.586l6.499-6.498
		C28.026,197.322,28.109,197.221,28.183,197.111z"/>
	<path fill="#A9BAC7" d="M2.817,164.889c-0.018,0.025-0.029,0.057-0.046,0.084c-0.05,0.084-0.1,0.168-0.138,0.26
		c-0.016,0.037-0.023,0.078-0.037,0.117c-0.029,0.084-0.06,0.166-0.077,0.256c-0.026,0.129-0.04,0.269-0.04,0.396
		s0.014,0.268,0.04,0.396c0.018,0.09,0.048,0.172,0.077,0.256c0.014,0.039,0.021,0.08,0.037,0.117
		c0.038,0.092,0.088,0.176,0.138,0.26c0.017,0.027,0.028,0.059,0.046,0.085c0.073,0.108,0.156,0.21,0.249,0.304l6.499,6.498
		c0.781,0.781,2.048,0.781,2.828,0c0.781-0.781,0.781-2.047,0-2.828L9.308,168h17.213c1.104,0,2-0.896,2-2s-0.896-2-2-2H9.308
		l3.086-3.086c0.781-0.781,0.781-2.047,0-2.828c-0.39-0.391-0.902-0.586-1.414-0.586s-1.023,0.195-1.414,0.586l-6.499,6.498
		C2.974,164.678,2.891,164.779,2.817,164.889z"/>
	<path fill="#FFFFFF" d="M32.817,164.889c-0.018,0.025-0.029,0.057-0.046,0.084c-0.05,0.084-0.1,0.168-0.138,0.26
		c-0.016,0.037-0.023,0.078-0.037,0.117c-0.029,0.084-0.06,0.166-0.077,0.256c-0.026,0.129-0.04,0.269-0.04,0.396
		s0.014,0.268,0.04,0.396c0.018,0.09,0.048,0.172,0.077,0.256c0.014,0.039,0.021,0.08,0.037,0.117
		c0.038,0.092,0.088,0.176,0.138,0.26c0.017,0.027,0.028,0.059,0.046,0.085c0.073,0.108,0.156,0.21,0.249,0.304l6.499,6.498
		c0.781,0.781,2.048,0.781,2.828,0c0.781-0.781,0.781-2.047,0-2.828L39.308,168h17.213c1.104,0,2-0.896,2-2s-0.896-2-2-2H39.308
		l3.086-3.086c0.781-0.781,0.781-2.047,0-2.828c-0.39-0.391-0.902-0.586-1.414-0.586s-1.023,0.195-1.414,0.586l-6.499,6.498
		C32.974,164.678,32.891,164.779,32.817,164.889z"/>
	<g>
		<path fill="#505050" d="M107.121,56.524c-0.11,0-0.224-0.012-0.334-0.035c-3.249-0.666-6.207-2.446-8.326-5.016
			c-2.15-2.607-3.336-5.906-3.336-9.29c0-3.353,1.165-6.628,3.279-9.222c2.085-2.557,4.998-4.348,8.205-5.047
			c0.895-0.194,1.777,0.373,1.973,1.27c0.195,0.894-0.373,1.777-1.268,1.972c-2.476,0.539-4.727,1.923-6.34,3.902
			c-1.633,2.003-2.531,4.533-2.531,7.125c0,2.616,0.914,5.165,2.576,7.177c1.639,1.988,3.924,3.365,6.432,3.878
			c0.896,0.183,1.477,1.06,1.291,1.958C108.582,55.982,107.893,56.524,107.121,56.524z"/>
		<path fill="#505050" d="M111.066,50.186c-4.412,0-8.002-3.59-8.002-8.002c0-4.413,3.59-8.003,8.002-8.003
			c0.916,0,1.658,0.744,1.658,1.659c0,0.916-0.742,1.659-1.658,1.659c-2.584,0-4.686,2.102-4.686,4.685s2.102,4.685,4.686,4.685
			c0.916,0,1.658,0.743,1.658,1.659S111.982,50.186,111.066,50.186z"/>
		<circle fill="#505050" cx="113.856" cy="42.184" r="2.222"/>
	</g>
	<g>
		<path fill="#505050" d="M254.307,36.718c2.524,0,4.477,1.675,4.496,1.692l0.123,0.107l1.965-4.062l-0.081-0.062
			c-0.026-0.02-2.604-1.958-6.882-1.958c-3.004,0-5.738,1.142-7.699,3.216c-1.834,1.939-2.885,4.61-2.885,7.327
			c0,5.787,4.283,9.829,10.416,9.829c4.832,0,6.979-2.377,7.067-2.479l0.054-0.061l-1.701-3.762l-0.128,0.12
			c-0.021,0.019-2.056,1.898-4.913,1.898c-3.114,0-5.127-2.292-5.127-5.84C249.012,39.116,251.14,36.718,254.307,36.718z"/>
		<path fill="#505050" d="M281.564,46.339V32.94h-5.459v12.544c-1.254,1.1-3.09,2.536-4.706,2.536c-1.382,0-1.849-0.901-1.849-3.572
			V32.94h-5.502v13.987c0,5.116,3.369,5.88,5.377,5.88c3.336,0,5.841-1.935,7.134-3.215c0.183,1.339,0.553,2.975,0.557,2.992
			l0.024,0.106l5.295-0.485l-0.035-0.141C282.393,52.03,281.564,48.607,281.564,46.339z"/>
		<path fill="#505050" d="M297.523,32.436c-2.717,0-4.599,2.18-5.588,3.718v-3.656l-5.291,0.882v18.924h5.501V40.749
			c0.793-1.16,2.397-3.064,4.37-3.064c0.886,0,1.749,0.364,1.758,0.368l0.146,0.062l0.866-5.197l0.015-0.086l-0.075-0.043
			C299.199,32.774,298.595,32.436,297.523,32.436z"/>
		<path fill="#505050" d="M312.854,32.436c-2.719,0-4.6,2.179-5.588,3.717v-3.656l-5.291,0.882v18.924h5.501V40.749
			c0.792-1.16,2.395-3.064,4.37-3.064c0.886,0,1.748,0.364,1.757,0.368l0.146,0.062l0.867-5.197l0.015-0.086l-0.076-0.043
			C314.529,32.774,313.924,32.436,312.854,32.436z"/>
		<rect x="317.388" y="32.94" fill="#505050" width="5.501" height="19.363"/>
		<path fill="#505050" d="M320.159,29.031c1.85,0,3.191-1.289,3.191-3.065s-1.342-3.066-3.191-3.066
			c-1.874,0-3.233,1.29-3.233,3.066S318.285,29.031,320.159,29.031z"/>
	</g>
	<g>
		<path fill="#FFFFFF" d="M107.121,91.524c-0.11,0-0.224-0.012-0.334-0.035c-3.249-0.666-6.207-2.446-8.326-5.016
			c-2.15-2.607-3.336-5.906-3.336-9.29c0-3.353,1.165-6.628,3.279-9.222c2.085-2.557,4.998-4.348,8.205-5.047
			c0.895-0.194,1.777,0.373,1.973,1.27c0.195,0.894-0.373,1.777-1.268,1.972c-2.476,0.539-4.727,1.923-6.34,3.902
			c-1.633,2.003-2.531,4.533-2.531,7.125c0,2.616,0.914,5.165,2.576,7.177c1.639,1.988,3.924,3.365,6.432,3.878
			c0.896,0.183,1.477,1.06,1.291,1.958C108.582,90.982,107.893,91.524,107.121,91.524z"/>
		<path fill="#FFFFFF" d="M111.066,85.186c-4.412,0-8.002-3.59-8.002-8.002c0-4.413,3.59-8.003,8.002-8.003
			c0.916,0,1.658,0.744,1.658,1.659c0,0.916-0.742,1.659-1.658,1.659c-2.584,0-4.686,2.102-4.686,4.685s2.102,4.685,4.686,4.685
			c0.916,0,1.658,0.743,1.658,1.659S111.982,85.186,111.066,85.186z"/>
		<circle fill="#FFFFFF" cx="113.856" cy="77.184" r="2.222"/>
	</g>
	<g>
		<path fill="#FFFFFF" d="M254.307,71.718c2.524,0,4.477,1.675,4.496,1.692l0.123,0.107l1.965-4.062l-0.081-0.062
			c-0.026-0.02-2.604-1.958-6.882-1.958c-3.004,0-5.738,1.142-7.699,3.216c-1.834,1.939-2.885,4.61-2.885,7.327
			c0,5.787,4.283,9.829,10.416,9.829c4.832,0,6.979-2.377,7.067-2.479l0.054-0.061l-1.701-3.762l-0.128,0.12
			c-0.021,0.019-2.056,1.898-4.913,1.898c-3.114,0-5.127-2.292-5.127-5.84C249.012,74.116,251.14,71.718,254.307,71.718z"/>
		<path fill="#FFFFFF" d="M281.564,81.339V67.94h-5.459v12.544c-1.254,1.1-3.09,2.536-4.706,2.536c-1.382,0-1.849-0.901-1.849-3.572
			V67.94h-5.502v13.987c0,5.116,3.369,5.88,5.377,5.88c3.336,0,5.841-1.935,7.134-3.215c0.183,1.339,0.553,2.975,0.557,2.992
			l0.024,0.106l5.295-0.485l-0.035-0.141C282.393,87.03,281.564,83.607,281.564,81.339z"/>
		<path fill="#FFFFFF" d="M297.523,67.436c-2.717,0-4.599,2.18-5.588,3.718v-3.656l-5.291,0.882v18.924h5.501V75.749
			c0.793-1.16,2.397-3.064,4.37-3.064c0.886,0,1.749,0.364,1.758,0.368l0.146,0.062l0.866-5.197l0.015-0.086l-0.075-0.043
			C299.199,67.774,298.595,67.436,297.523,67.436z"/>
		<path fill="#FFFFFF" d="M312.854,67.436c-2.719,0-4.6,2.179-5.588,3.717v-3.656l-5.291,0.882v18.924h5.501V75.749
			c0.792-1.16,2.395-3.064,4.37-3.064c0.886,0,1.748,0.364,1.757,0.368l0.146,0.062l0.867-5.197l0.015-0.086l-0.076-0.043
			C314.529,67.774,313.924,67.436,312.854,67.436z"/>
		<rect x="317.388" y="67.94" fill="#FFFFFF" width="5.501" height="19.363"/>
		<path fill="#FFFFFF" d="M320.159,64.031c1.85,0,3.191-1.289,3.191-3.065s-1.342-3.066-3.191-3.066
			c-1.874,0-3.233,1.29-3.233,3.066S318.285,64.031,320.159,64.031z"/>
	</g>
	<g>
		<path fill="#C45906" d="M-34.989,196.703c0.822-0.796,1.362-2.049,1.362-3.473c0-2.41-1.521-4.363-3.397-4.363
			c-1.875,0-3.397,1.953-3.397,4.363c0,1.424,0.54,2.677,1.362,3.473c-2.953,0.659-5.129,2.711-5.278,5.176
			c2.125,1.336,4.626,2.121,7.313,2.121c2.688,0,5.188-0.785,7.314-2.121C-29.86,199.414-32.037,197.362-34.989,196.703z"/>
		<path fill="#C45906" d="M-40.788,196.126c-0.446-0.856-0.689-1.854-0.689-2.896c0-2.296,1.177-4.251,2.831-5.045
			c0.204-0.556,0.329-1.166,0.329-1.821c0-2.41-1.521-4.364-3.397-4.364c-1.875,0-3.397,1.954-3.397,4.364
			c0,1.423,0.54,2.677,1.362,3.474c-2.953,0.658-5.129,2.71-5.278,5.175c1.894,1.19,4.088,1.939,6.445,2.09
			C-42.045,196.719-41.444,196.389-40.788,196.126z"/>
		<path fill="#C45906" d="M-32.572,193.23c0,1.041-0.243,2.039-0.689,2.896c0.655,0.263,1.257,0.593,1.794,0.976
			c2.354-0.15,4.546-0.899,6.438-2.089c-0.149-2.465-2.326-4.517-5.278-5.175c0.822-0.797,1.362-2.051,1.362-3.474
			c0-2.41-1.521-4.364-3.397-4.364c-1.876,0-3.397,1.954-3.397,4.364c0,0.654,0.125,1.264,0.328,1.817
			C-33.754,188.974-32.572,190.932-32.572,193.23z"/>
	</g>
	<g>
		<path fill="#C45906" d="M46.189,216"/>
	</g>
	<g>
		<path fill="#FFFFFF" d="M36.124,76.089c-0.712,0-1.291,0.579-1.291,1.291c0,0.712,0.579,1.292,1.291,1.292s1.291-0.58,1.291-1.292
			S36.836,76.089,36.124,76.089z M36.124,78.026c-0.355,0-0.646-0.291-0.646-0.646c0-0.356,0.291-0.646,0.646-0.646
			c0.355,0,0.646,0.29,0.646,0.646C36.769,77.736,36.479,78.026,36.124,78.026z"/>
		<path fill="#FFFFFF" d="M36.124,79.963c-0.712,0-1.291,0.579-1.291,1.291c0,0.713,0.579,1.292,1.291,1.292s1.291-0.58,1.291-1.292
			S36.836,79.963,36.124,79.963z M36.124,81.899c-0.355,0-0.646-0.29-0.646-0.646c0-0.355,0.291-0.646,0.646-0.646
			c0.355,0,0.646,0.291,0.646,0.646C36.769,81.609,36.479,81.899,36.124,81.899z"/>
		<path fill="#FFFFFF" d="M36.124,83.836c-0.712,0-1.291,0.579-1.291,1.291c0,0.712,0.579,1.291,1.291,1.291
			s1.291-0.579,1.291-1.291C37.415,84.415,36.836,83.836,36.124,83.836z M36.124,85.772c-0.355,0-0.646-0.291-0.646-0.646
			c0-0.356,0.291-0.646,0.646-0.646c0.355,0,0.646,0.29,0.646,0.646C36.769,85.482,36.479,85.772,36.124,85.772z"/>
		<path fill="#FFFFFF" d="M38.705,80.589c0,0.179,0.145,0.323,0.322,0.323h7.101c0.179,0,0.323-0.144,0.323-0.323
			c0-0.179-0.143-0.323-0.322-0.323h-7.101C38.85,80.266,38.705,80.411,38.705,80.589z"/>
		<path fill="#FFFFFF" d="M39.027,82.202h5.165c0.178,0,0.324-0.145,0.324-0.323s-0.146-0.323-0.324-0.323h-5.165
			c-0.178,0-0.322,0.144-0.322,0.323S38.85,82.202,39.027,82.202z"/>
		<path fill="#FFFFFF" d="M46.128,84.138h-7.101c-0.178,0-0.322,0.145-0.322,0.323c0,0.178,0.145,0.323,0.322,0.323h7.101
			c0.179,0,0.323-0.145,0.323-0.323C46.451,84.283,46.308,84.138,46.128,84.138z"/>
		<path fill="#FFFFFF" d="M44.837,85.429h-5.81c-0.178,0-0.322,0.145-0.322,0.324s0.145,0.322,0.322,0.322h5.81
			c0.178,0,0.324-0.144,0.324-0.322S45.016,85.429,44.837,85.429z"/>
		<path fill="#FFFFFF" d="M49.209,61.009c-4.844,0-8.799,3.834-9.017,8.626h-6.005c-1.067,0-1.937,0.869-1.937,1.937v15.492
			c0,1.067,0.869,1.937,1.937,1.937h12.91c1.068,0,1.938-0.869,1.938-1.937v-7.988c0.059,0.001,0.116,0.009,0.175,0.009
			c4.983,0,9.038-4.054,9.038-9.038C58.247,65.063,54.192,61.009,49.209,61.009z M47.742,87.063c0,0.355-0.291,0.646-0.646,0.646
			h-12.91c-0.355,0-0.646-0.29-0.646-0.646V71.571c0-0.356,0.291-0.646,0.646-0.646h6.029c0.057,0.583,0.171,1.149,0.334,1.695
			h-5.073c-0.356,0-0.646,0.29-0.646,0.646c0.001,0.355,0.291,0.646,0.646,0.646h5.575c0.438,0.922,1.021,1.762,1.731,2.48h-3.756
			c-0.178,0-0.322,0.145-0.322,0.322c0,0.179,0.145,0.323,0.322,0.323h4.463c0.287,0.235,0.592,0.446,0.906,0.646h-5.369
			c-0.178,0-0.322,0.145-0.322,0.322c0,0.179,0.145,0.323,0.322,0.323h5.81c0.142,0,0.242-0.103,0.286-0.231
			c0.811,0.413,1.691,0.704,2.62,0.857L47.742,87.063z M49.209,77.145c-0.059,0-0.116-0.007-0.175-0.009
			c-0.441-0.011-0.874-0.057-1.292-0.146c-0.471-0.099-0.925-0.247-1.357-0.435c-0.115-0.05-0.227-0.107-0.339-0.164
			c-1.134-0.567-2.095-1.425-2.784-2.48c-0.263-0.404-0.484-0.836-0.662-1.292c-0.21-0.537-0.357-1.104-0.43-1.695
			c-0.036-0.289-0.061-0.581-0.061-0.879c0-0.139,0.013-0.274,0.021-0.412c0.215-3.722,3.303-6.688,7.078-6.688
			c3.914,0,7.099,3.186,7.099,7.099C56.308,73.96,53.123,77.145,49.209,77.145z"/>
		<path fill="#FFFFFF" d="M52.201,70.046h-2.527v-4.107c0-0.536-0.434-0.97-0.969-0.97c-0.536,0-0.97,0.434-0.97,0.97v3.812v1.778
			v0.456h0.009h1.291h3.167c0.536,0,0.97-0.434,0.97-0.969C53.17,70.48,52.736,70.046,52.201,70.046z"/>
	</g>
	<g>
		<path fill="#415463" d="M66.124,76.089c-0.712,0-1.291,0.579-1.291,1.291c0,0.712,0.579,1.292,1.291,1.292s1.291-0.58,1.291-1.292
			S66.836,76.089,66.124,76.089z M66.124,78.026c-0.355,0-0.646-0.291-0.646-0.646c0-0.356,0.291-0.646,0.646-0.646
			c0.355,0,0.646,0.29,0.646,0.646C66.769,77.736,66.479,78.026,66.124,78.026z"/>
		<path fill="#415463" d="M66.124,79.963c-0.712,0-1.291,0.579-1.291,1.291c0,0.713,0.579,1.292,1.291,1.292s1.291-0.58,1.291-1.292
			S66.836,79.963,66.124,79.963z M66.124,81.899c-0.355,0-0.646-0.29-0.646-0.646c0-0.355,0.291-0.646,0.646-0.646
			c0.355,0,0.646,0.291,0.646,0.646C66.769,81.609,66.479,81.899,66.124,81.899z"/>
		<path fill="#415463" d="M66.124,83.836c-0.712,0-1.291,0.579-1.291,1.291c0,0.712,0.579,1.291,1.291,1.291
			s1.291-0.579,1.291-1.291C67.415,84.415,66.836,83.836,66.124,83.836z M66.124,85.772c-0.355,0-0.646-0.291-0.646-0.646
			c0-0.356,0.291-0.646,0.646-0.646c0.355,0,0.646,0.29,0.646,0.646C66.769,85.482,66.479,85.772,66.124,85.772z"/>
		<path fill="#415463" d="M68.705,80.589c0,0.179,0.145,0.323,0.322,0.323h7.101c0.179,0,0.323-0.144,0.323-0.323
			c0-0.179-0.143-0.323-0.322-0.323h-7.101C68.85,80.266,68.705,80.411,68.705,80.589z"/>
		<path fill="#415463" d="M69.027,82.202h5.165c0.178,0,0.324-0.145,0.324-0.323s-0.146-0.323-0.324-0.323h-5.165
			c-0.178,0-0.322,0.144-0.322,0.323S68.85,82.202,69.027,82.202z"/>
		<path fill="#415463" d="M76.128,84.138h-7.101c-0.178,0-0.322,0.145-0.322,0.323c0,0.178,0.145,0.323,0.322,0.323h7.101
			c0.179,0,0.323-0.145,0.323-0.323C76.451,84.283,76.308,84.138,76.128,84.138z"/>
		<path fill="#415463" d="M74.837,85.429h-5.81c-0.178,0-0.322,0.145-0.322,0.324s0.145,0.322,0.322,0.322h5.81
			c0.178,0,0.324-0.144,0.324-0.322S75.016,85.429,74.837,85.429z"/>
		<path fill="#415463" d="M79.209,61.009c-4.844,0-8.799,3.834-9.017,8.626h-6.005c-1.067,0-1.937,0.869-1.937,1.937v15.492
			c0,1.067,0.869,1.937,1.937,1.937h12.91c1.068,0,1.938-0.869,1.938-1.937v-7.988c0.059,0.001,0.116,0.009,0.175,0.009
			c4.983,0,9.038-4.054,9.038-9.038C88.247,65.063,84.192,61.009,79.209,61.009z M77.742,87.063c0,0.355-0.291,0.646-0.646,0.646
			h-12.91c-0.355,0-0.646-0.29-0.646-0.646V71.571c0-0.356,0.291-0.646,0.646-0.646h6.029c0.057,0.583,0.171,1.149,0.334,1.695
			h-5.073c-0.356,0-0.646,0.29-0.646,0.646c0.001,0.355,0.291,0.646,0.646,0.646h5.575c0.438,0.922,1.021,1.762,1.731,2.48h-3.756
			c-0.178,0-0.322,0.145-0.322,0.322c0,0.179,0.145,0.323,0.322,0.323h4.463c0.287,0.235,0.592,0.446,0.906,0.646h-5.369
			c-0.178,0-0.322,0.145-0.322,0.322c0,0.179,0.145,0.323,0.322,0.323h5.81c0.142,0,0.242-0.103,0.286-0.231
			c0.811,0.413,1.691,0.704,2.62,0.857L77.742,87.063z M79.209,77.145c-0.059,0-0.116-0.007-0.175-0.009
			c-0.441-0.011-0.874-0.057-1.292-0.146c-0.471-0.099-0.925-0.247-1.357-0.435c-0.115-0.05-0.227-0.107-0.339-0.164
			c-1.134-0.567-2.095-1.425-2.784-2.48c-0.263-0.404-0.484-0.836-0.662-1.292c-0.21-0.537-0.357-1.104-0.43-1.695
			c-0.036-0.289-0.061-0.581-0.061-0.879c0-0.139,0.013-0.274,0.021-0.412c0.215-3.722,3.303-6.688,7.078-6.688
			c3.914,0,7.099,3.186,7.099,7.099C86.308,73.96,83.123,77.145,79.209,77.145z"/>
		<path fill="#415463" d="M82.201,70.046h-2.527v-4.107c0-0.536-0.434-0.97-0.969-0.97c-0.536,0-0.97,0.434-0.97,0.97v3.812v1.778
			v0.456h0.009h1.291h3.167c0.536,0,0.97-0.434,0.97-0.969C83.17,70.48,82.736,70.046,82.201,70.046z"/>
	</g>
	<g>
		<path fill="#A9BAC7" d="M6.124,76.089c-0.712,0-1.291,0.579-1.291,1.291c0,0.712,0.579,1.292,1.291,1.292s1.291-0.58,1.291-1.292
			S6.836,76.089,6.124,76.089z M6.124,78.026c-0.355,0-0.646-0.291-0.646-0.646c0-0.356,0.291-0.646,0.646-0.646
			c0.355,0,0.646,0.29,0.646,0.646C6.769,77.736,6.479,78.026,6.124,78.026z"/>
		<path fill="#A9BAC7" d="M6.124,79.963c-0.712,0-1.291,0.579-1.291,1.291c0,0.713,0.579,1.292,1.291,1.292s1.291-0.58,1.291-1.292
			S6.836,79.963,6.124,79.963z M6.124,81.899c-0.355,0-0.646-0.29-0.646-0.646c0-0.355,0.291-0.646,0.646-0.646
			c0.355,0,0.646,0.291,0.646,0.646C6.769,81.609,6.479,81.899,6.124,81.899z"/>
		<path fill="#A9BAC7" d="M6.124,83.836c-0.712,0-1.291,0.579-1.291,1.291c0,0.712,0.579,1.291,1.291,1.291s1.291-0.579,1.291-1.291
			C7.415,84.415,6.836,83.836,6.124,83.836z M6.124,85.772c-0.355,0-0.646-0.291-0.646-0.646c0-0.356,0.291-0.646,0.646-0.646
			c0.355,0,0.646,0.29,0.646,0.646C6.769,85.482,6.479,85.772,6.124,85.772z"/>
		<path fill="#A9BAC7" d="M8.705,80.589c0,0.179,0.145,0.323,0.322,0.323h7.101c0.179,0,0.323-0.144,0.323-0.323
			c0-0.179-0.143-0.323-0.322-0.323H9.027C8.85,80.266,8.705,80.411,8.705,80.589z"/>
		<path fill="#A9BAC7" d="M9.027,82.202h5.165c0.178,0,0.324-0.145,0.324-0.323s-0.146-0.323-0.324-0.323H9.027
			c-0.178,0-0.322,0.144-0.322,0.323S8.85,82.202,9.027,82.202z"/>
		<path fill="#A9BAC7" d="M16.128,84.138H9.027c-0.178,0-0.322,0.145-0.322,0.323c0,0.178,0.145,0.323,0.322,0.323h7.101
			c0.179,0,0.323-0.145,0.323-0.323C16.451,84.283,16.308,84.138,16.128,84.138z"/>
		<path fill="#A9BAC7" d="M14.837,85.429h-5.81c-0.178,0-0.322,0.145-0.322,0.324s0.145,0.322,0.322,0.322h5.81
			c0.178,0,0.324-0.144,0.324-0.322S15.016,85.429,14.837,85.429z"/>
		<path fill="#A9BAC7" d="M19.209,61.009c-4.844,0-8.799,3.834-9.017,8.626H4.187c-1.067,0-1.937,0.869-1.937,1.937v15.492
			C2.25,88.131,3.119,89,4.187,89h12.91c1.068,0,1.938-0.869,1.938-1.937v-7.988c0.059,0.001,0.116,0.009,0.175,0.009
			c4.983,0,9.038-4.054,9.038-9.038C28.247,65.063,24.192,61.009,19.209,61.009z M17.742,87.063c0,0.355-0.291,0.646-0.646,0.646
			H4.187c-0.355,0-0.646-0.29-0.646-0.646V71.571c0-0.356,0.291-0.646,0.646-0.646h6.029c0.057,0.583,0.171,1.149,0.334,1.695H5.477
			c-0.356,0-0.646,0.29-0.646,0.646c0.001,0.355,0.291,0.646,0.646,0.646h5.575c0.438,0.922,1.021,1.762,1.731,2.48H9.027
			c-0.178,0-0.322,0.145-0.322,0.322c0,0.179,0.145,0.323,0.322,0.323h4.463c0.287,0.235,0.592,0.446,0.906,0.646H9.027
			c-0.178,0-0.322,0.145-0.322,0.322c0,0.179,0.145,0.323,0.322,0.323h5.81c0.142,0,0.242-0.103,0.286-0.231
			c0.811,0.413,1.691,0.704,2.62,0.857L17.742,87.063z M19.209,77.145c-0.059,0-0.116-0.007-0.175-0.009
			c-0.441-0.011-0.874-0.057-1.292-0.146c-0.471-0.099-0.925-0.247-1.357-0.435c-0.115-0.05-0.227-0.107-0.339-0.164
			c-1.134-0.567-2.095-1.425-2.784-2.48c-0.263-0.404-0.484-0.836-0.662-1.292c-0.21-0.537-0.357-1.104-0.43-1.695
			c-0.036-0.289-0.061-0.581-0.061-0.879c0-0.139,0.013-0.274,0.021-0.412c0.215-3.722,3.303-6.688,7.078-6.688
			c3.914,0,7.099,3.186,7.099,7.099C26.308,73.96,23.123,77.145,19.209,77.145z"/>
		<path fill="#A9BAC7" d="M22.201,70.046h-2.527v-4.107c0-0.536-0.434-0.97-0.969-0.97c-0.536,0-0.97,0.434-0.97,0.97v3.812v1.778
			v0.456h0.009h1.291h3.167c0.536,0,0.97-0.434,0.97-0.969C23.17,70.48,22.736,70.046,22.201,70.046z"/>
	</g>
	<path fill="#A9BAC7" d="M25.876,103.5h-2.704c-0.05,0-0.097,0.01-0.146,0.015c-0.207-1.087-0.632-2.096-1.234-2.976
		c0.038-0.031,0.084-0.044,0.12-0.08l1.619-1.619c0.586-0.585,0.586-1.536,0-2.121c-0.586-0.586-1.535-0.586-2.121,0l-1.619,1.619
		c-0.035,0.035-0.048,0.082-0.08,0.12c-0.88-0.602-1.889-1.027-2.976-1.233c0.005-0.049,0.015-0.096,0.015-0.146v-2.704
		c0-0.829-0.671-1.5-1.5-1.5s-1.5,0.671-1.5,1.5v2.704c0,0.05,0.01,0.097,0.015,0.146c-1.087,0.207-2.096,0.632-2.976,1.233
		c-0.031-0.038-0.044-0.084-0.08-0.12L9.09,96.718c-0.586-0.586-1.535-0.586-2.121,0c-0.586,0.585-0.586,1.536,0,2.121l1.619,1.619
		c0.035,0.035,0.082,0.048,0.12,0.08c-0.602,0.88-1.027,1.889-1.234,2.976c-0.049-0.005-0.096-0.015-0.146-0.015H4.624
		c-0.829,0-1.5,0.671-1.5,1.5s0.671,1.5,1.5,1.5h2.704c0.05,0,0.097-0.01,0.146-0.015c0.206,1.087,0.632,2.096,1.233,2.977
		c-0.038,0.031-0.084,0.044-0.12,0.079l-1.619,1.62c-0.585,0.586-0.585,1.536,0,2.122c0.293,0.292,0.677,0.439,1.061,0.439
		s0.768-0.146,1.061-0.439l1.619-1.62c0.035-0.035,0.048-0.082,0.079-0.119c0.881,0.602,1.89,1.027,2.977,1.233
		c-0.005,0.048-0.015,0.095-0.015,0.144v2.705c0,0.829,0.671,1.5,1.5,1.5s1.5-0.671,1.5-1.5v-2.705c0-0.049-0.01-0.096-0.015-0.144
		c1.087-0.207,2.096-0.632,2.977-1.233c0.031,0.037,0.044,0.083,0.079,0.118l1.619,1.62c0.293,0.293,0.677,0.439,1.061,0.439
		s0.768-0.146,1.061-0.439c0.586-0.586,0.586-1.536,0-2.122l-1.619-1.62c-0.035-0.035-0.082-0.048-0.119-0.079
		c0.602-0.88,1.027-1.889,1.233-2.976c0.049,0.005,0.096,0.015,0.146,0.015h2.704c0.829,0,1.5-0.671,1.5-1.5
		S26.705,103.5,25.876,103.5z M15.25,108.92c-2.162,0-3.92-1.759-3.92-3.92s1.759-3.92,3.92-3.92s3.92,1.759,3.92,3.92
		S17.412,108.92,15.25,108.92z"/>
	<path fill="#FFFFFF" d="M55.876,103.5h-2.704c-0.05,0-0.097,0.01-0.146,0.015c-0.207-1.087-0.632-2.096-1.234-2.976
		c0.038-0.031,0.084-0.044,0.12-0.08l1.619-1.619c0.586-0.585,0.586-1.536,0-2.121c-0.586-0.586-1.535-0.586-2.121,0l-1.619,1.619
		c-0.035,0.035-0.048,0.082-0.08,0.12c-0.88-0.602-1.889-1.027-2.976-1.233c0.005-0.049,0.015-0.096,0.015-0.146v-2.704
		c0-0.829-0.671-1.5-1.5-1.5s-1.5,0.671-1.5,1.5v2.704c0,0.05,0.01,0.097,0.015,0.146c-1.087,0.207-2.096,0.632-2.976,1.233
		c-0.031-0.038-0.044-0.084-0.08-0.12l-1.619-1.619c-0.586-0.586-1.535-0.586-2.121,0c-0.586,0.585-0.586,1.536,0,2.121l1.619,1.619
		c0.035,0.035,0.082,0.048,0.12,0.08c-0.602,0.88-1.027,1.889-1.234,2.976c-0.049-0.005-0.096-0.015-0.146-0.015h-2.704
		c-0.829,0-1.5,0.671-1.5,1.5s0.671,1.5,1.5,1.5h2.704c0.05,0,0.097-0.01,0.146-0.015c0.206,1.087,0.632,2.096,1.233,2.977
		c-0.038,0.031-0.084,0.044-0.12,0.079l-1.619,1.62c-0.585,0.586-0.585,1.536,0,2.122c0.293,0.292,0.677,0.439,1.061,0.439
		s0.768-0.146,1.061-0.439l1.619-1.62c0.035-0.035,0.048-0.082,0.079-0.119c0.881,0.602,1.89,1.027,2.977,1.233
		c-0.005,0.048-0.015,0.095-0.015,0.144v2.705c0,0.829,0.671,1.5,1.5,1.5s1.5-0.671,1.5-1.5v-2.705c0-0.049-0.01-0.096-0.015-0.144
		c1.087-0.207,2.096-0.632,2.977-1.233c0.031,0.037,0.044,0.083,0.079,0.118l1.619,1.62c0.293,0.293,0.677,0.439,1.061,0.439
		s0.768-0.146,1.061-0.439c0.586-0.586,0.586-1.536,0-2.122l-1.619-1.62c-0.035-0.035-0.082-0.048-0.119-0.079
		c0.602-0.88,1.027-1.889,1.233-2.976c0.049,0.005,0.096,0.015,0.146,0.015h2.704c0.829,0,1.5-0.671,1.5-1.5
		S56.705,103.5,55.876,103.5z M45.25,108.92c-2.162,0-3.92-1.759-3.92-3.92s1.759-3.92,3.92-3.92s3.92,1.759,3.92,3.92
		S47.412,108.92,45.25,108.92z"/>
	<path fill="#415463" d="M85.876,103.5h-2.704c-0.05,0-0.097,0.01-0.146,0.015c-0.207-1.087-0.632-2.096-1.234-2.976
		c0.038-0.031,0.084-0.044,0.12-0.08l1.619-1.619c0.586-0.585,0.586-1.536,0-2.121c-0.586-0.586-1.535-0.586-2.121,0l-1.619,1.619
		c-0.035,0.035-0.048,0.082-0.08,0.12c-0.88-0.602-1.889-1.027-2.976-1.233c0.005-0.049,0.015-0.096,0.015-0.146v-2.704
		c0-0.829-0.671-1.5-1.5-1.5s-1.5,0.671-1.5,1.5v2.704c0,0.05,0.01,0.097,0.015,0.146c-1.087,0.207-2.096,0.632-2.976,1.233
		c-0.031-0.038-0.044-0.084-0.08-0.12l-1.619-1.619c-0.586-0.586-1.535-0.586-2.121,0c-0.586,0.585-0.586,1.536,0,2.121l1.619,1.619
		c0.035,0.035,0.082,0.048,0.12,0.08c-0.602,0.88-1.027,1.889-1.234,2.976c-0.049-0.005-0.096-0.015-0.146-0.015h-2.704
		c-0.829,0-1.5,0.671-1.5,1.5s0.671,1.5,1.5,1.5h2.704c0.05,0,0.097-0.01,0.146-0.015c0.206,1.087,0.632,2.096,1.233,2.977
		c-0.038,0.031-0.084,0.044-0.12,0.079l-1.619,1.62c-0.585,0.586-0.585,1.536,0,2.122c0.293,0.292,0.677,0.439,1.061,0.439
		s0.768-0.146,1.061-0.439l1.619-1.62c0.035-0.035,0.048-0.082,0.079-0.119c0.881,0.602,1.89,1.027,2.977,1.233
		c-0.005,0.048-0.015,0.095-0.015,0.144v2.705c0,0.829,0.671,1.5,1.5,1.5s1.5-0.671,1.5-1.5v-2.705c0-0.049-0.01-0.096-0.015-0.144
		c1.087-0.207,2.096-0.632,2.977-1.233c0.031,0.037,0.044,0.083,0.079,0.118l1.619,1.62c0.293,0.293,0.677,0.439,1.061,0.439
		s0.768-0.146,1.061-0.439c0.586-0.586,0.586-1.536,0-2.122l-1.619-1.62c-0.035-0.035-0.082-0.048-0.119-0.079
		c0.602-0.88,1.027-1.889,1.233-2.976c0.049,0.005,0.096,0.015,0.146,0.015h2.704c0.829,0,1.5-0.671,1.5-1.5
		S86.705,103.5,85.876,103.5z M75.25,108.92c-2.162,0-3.92-1.759-3.92-3.92s1.759-3.92,3.92-3.92s3.92,1.759,3.92,3.92
		S77.412,108.92,75.25,108.92z"/>
	<rect x="94.25" y="106" fill="#DDDDDD" width="16" height="16"/>
	<polygon fill="#FFFFFF" points="107.583,112.667 103.583,112.667 103.583,108.667 100.917,108.667 100.917,112.667 96.917,112.667 
		96.917,115.333 100.917,115.333 100.917,119.333 103.583,119.333 103.583,115.333 107.583,115.333 	"/>
	<rect x="94.25" y="130" fill="#88DB81" width="16" height="16"/>
	<rect x="118.25" y="130" fill="#88DB81" width="16" height="16"/>
	<rect x="142.25" y="130" fill="#88DB81" width="16" height="16"/>
	<polygon fill="#FFFFFF" points="107.583,136.667 103.583,136.667 103.583,132.667 100.917,132.667 100.917,136.667 96.917,136.667 
		96.917,139.333 100.917,139.333 100.917,143.333 103.583,143.333 103.583,139.333 107.583,139.333 	"/>
	<g>
		<path fill="#FFFFFF" d="M128.9,140.295c0.432-0.418,0.715-1.076,0.715-1.824c0-1.266-0.799-2.292-1.785-2.292
			c-0.985,0-1.784,1.026-1.784,2.292c0,0.748,0.283,1.406,0.715,1.824c-1.551,0.347-2.694,1.424-2.772,2.719
			c1.116,0.701,2.43,1.114,3.841,1.114c1.412,0,2.726-0.413,3.842-1.114C131.595,141.719,130.451,140.642,128.9,140.295z"/>
		<path fill="#FFFFFF" d="M125.155,139.386c-0.234-0.451-0.362-0.976-0.362-1.522c0-1.205,0.619-2.232,1.487-2.648
			c0.107-0.292,0.173-0.613,0.173-0.957c0-1.267-0.799-2.293-1.784-2.293s-1.784,1.026-1.784,2.293c0,0.747,0.283,1.405,0.715,1.824
			c-1.551,0.346-2.694,1.423-2.772,2.719c0.995,0.625,2.147,1.018,3.385,1.097C124.495,139.696,124.811,139.522,125.155,139.386z"/>
	</g>
	<rect x="118.25" y="106" fill="#DDDDDD" width="16" height="16"/>
	<g>
		<path fill="#FFFFFF" d="M128.9,116.295c0.432-0.418,0.715-1.076,0.715-1.824c0-1.266-0.799-2.292-1.785-2.292
			c-0.985,0-1.784,1.026-1.784,2.292c0,0.748,0.283,1.406,0.715,1.824c-1.551,0.347-2.694,1.424-2.772,2.719
			c1.116,0.701,2.43,1.114,3.841,1.114c1.412,0,2.726-0.413,3.842-1.114C131.595,117.719,130.451,116.642,128.9,116.295z"/>
		<path fill="#FFFFFF" d="M125.155,115.385c-0.234-0.45-0.362-0.975-0.362-1.521c0-1.206,0.619-2.233,1.487-2.649
			c0.107-0.292,0.173-0.613,0.173-0.957c0-1.267-0.799-2.292-1.784-2.292s-1.784,1.026-1.784,2.292c0,0.748,0.283,1.405,0.715,1.825
			c-1.551,0.345-2.694,1.423-2.772,2.718c0.995,0.625,2.147,1.018,3.385,1.097C124.495,115.696,124.811,115.522,125.155,115.385z"/>
	</g>
	<g>
		<path fill="#DDDDDD" d="M69.911,170.253c0,1.516,1.21,2.748,2.699,2.748h5.283c1.489,0,2.699-1.232,2.699-2.748v-7.24H69.911
			V170.253z M79.033,164.51v5.743c0,0.679-0.524,1.25-1.143,1.25h-0.566v-6.993H79.033z M76.287,164.51v6.993h-2.074v-6.993H76.287z
			 M71.466,164.51h1.709v6.993h-0.567c-0.619,0-1.144-0.571-1.144-1.25v-5.743H71.466z"/>
		<path fill="#DDDDDD" d="M81.473,160.375h-1.921v-0.628c0-1.516-1.21-2.748-2.699-2.748h-3.208c-1.489,0-2.699,1.232-2.699,2.748
			v0.628h-1.92c-0.429,0-0.778,0.336-0.778,0.749s0.349,0.748,0.778,0.748h12.446c0.429,0,0.778-0.335,0.778-0.748
			S81.902,160.375,81.473,160.375z M77.996,160.375h-5.493v-0.628c0-0.689,0.512-1.25,1.143-1.25h3.209
			c0.629,0,1.143,0.561,1.143,1.25v0.628H77.996z"/>
	</g>
	<g>
		<path fill="#5DA3FD" d="M99.911,170.253c0,1.516,1.21,2.748,2.699,2.748h5.283c1.489,0,2.699-1.232,2.699-2.748v-7.24H99.911
			V170.253z M109.034,164.51v5.743c0,0.679-0.524,1.25-1.143,1.25h-0.566v-6.993H109.034z M106.287,164.51v6.993h-2.074v-6.993
			H106.287z M101.467,164.51h1.709v6.993h-0.567c-0.619,0-1.144-0.571-1.144-1.25v-5.743H101.467z"/>
		<path fill="#5DA3FD" d="M111.473,160.375h-1.921v-0.628c0-1.516-1.21-2.748-2.699-2.748h-3.208c-1.489,0-2.699,1.232-2.699,2.748
			v0.628h-1.92c-0.429,0-0.778,0.336-0.778,0.749s0.349,0.748,0.778,0.748h12.446c0.429,0,0.778-0.335,0.778-0.748
			S111.902,160.375,111.473,160.375z M107.997,160.375h-5.493v-0.628c0-0.689,0.512-1.25,1.143-1.25h3.209
			c0.629,0,1.143,0.561,1.143,1.25v0.628H107.997z"/>
	</g>
	<path fill="#FFFFFF" d="M149.896,142.5c0.75,0,6-9.062,5.312-9.688s-4.75,6.688-5.625,6.75s-3.229-1.875-3.667-1.562
		S148.896,142.5,149.896,142.5z"/>
	<rect x="142.25" y="106" fill="#DDDDDD" width="16" height="16"/>
	<path fill="#FFFFFF" d="M149.896,118.5c0.75,0,6-9.062,5.312-9.688s-4.75,6.688-5.625,6.75s-3.229-1.875-3.667-1.562
		S148.896,118.5,149.896,118.5z"/>
	<g>
		<polygon fill="#505050" points="137.498,39.681 130.703,39.681 130.703,33.403 126.737,33.403 126.737,49.741 130.703,49.741 
			130.703,43.141 137.498,43.141 137.498,49.741 141.441,49.741 141.441,33.403 137.498,33.403 		"/>
		<path fill="#505050" d="M152.089,45.647c-0.014,0.012-1.335,1.162-2.842,1.162c-1.401,0-2.026-0.871-2.306-1.631l4.678-0.609
			l1.925-0.566l-0.003-0.377c-0.024-3.469-1.935-5.625-4.984-5.625c-3.248,0-5.697,2.607-5.697,6.065c0,2.961,1.825,5.95,5.904,5.95
			c2.894,0,4.651-1.533,4.725-1.598l0.254-0.226l-1.104-3.031L152.089,45.647z M148.35,41.141c0.671,0,0.929,0.606,1.026,1.046
			l-2.52,0.329C147.039,41.878,147.445,41.141,148.35,41.141z"/>
		<polygon fill="#505050" points="154.865,49.741 158.74,49.741 158.74,32.167 154.865,32.787 		"/>
		<path fill="#505050" d="M166.364,38.002c-0.992,0-1.849,0.289-2.513,0.833v-0.877l-3.76,0.627v16.646l3.875-0.62v-4.782
			c0.559,0.158,1.137,0.188,1.5,0.188c3.801,0,5.789-3.19,5.789-6.341C171.256,40.335,169.244,38.002,166.364,38.002z M167.29,43.86
			c0,1.918-0.841,3.018-2.306,3.018c-0.507,0-1.018-0.137-1.018-0.442v-3.958c0.368-0.506,1.034-1.223,1.846-1.223
			C166.71,41.255,167.29,42.278,167.29,43.86z"/>
		<path fill="#505050" d="M184.843,45.148c-0.017,0.013-1.659,1.293-4.173,1.293c-2.873,0-4.88-2.007-4.88-4.881
			c0-2.906,1.979-4.858,4.927-4.858c2.534,0,3.98,1.081,3.993,1.091l0.502,0.39l1.562-3.474l-0.354-0.235
			c-0.083-0.055-2.075-1.348-5.589-1.348c-5.345,0-9.077,3.572-9.077,8.687c0,4.83,3.591,8.203,8.732,8.203
			c4.059,0,6.119-1.871,6.204-1.95l0.287-0.266l-1.673-3.02L184.843,45.148z"/>
		<path fill="#505050" d="M198.027,46.044v-7.767h-3.851v7.102c-0.47,0.403-1.414,1.153-2.145,1.153c-0.299,0-0.581,0-0.581-1.523
			v-6.732h-3.874v8.088c0,2.32,1.229,3.65,3.374,3.65c1.543,0,2.778-0.69,3.606-1.35c0.089,0.477,0.178,0.866,0.184,0.892
			l0.097,0.427l3.772-0.346l-0.138-0.563C198.469,49.058,198.027,47.233,198.027,46.044z"/>
		<path fill="#505050" d="M209.108,45.162l-0.55,0.485c-0.014,0.012-1.335,1.162-2.842,1.162c-1.401,0-2.026-0.871-2.306-1.631
			l4.678-0.609l1.925-0.566l-0.003-0.377c-0.024-3.469-1.935-5.625-4.984-5.625c-3.247,0-5.696,2.607-5.696,6.065
			c0,2.961,1.825,5.95,5.903,5.95c2.894,0,4.651-1.533,4.725-1.598l0.254-0.226L209.108,45.162z M204.819,41.141
			c0.671,0,0.929,0.606,1.026,1.046l-2.52,0.329C203.509,41.878,203.915,41.141,204.819,41.141z"/>
	</g>
	<g>
		<polygon fill="#FFFFFF" points="137.498,74.585 130.703,74.585 130.703,68.307 126.737,68.307 126.737,84.645 130.703,84.645 
			130.703,78.045 137.498,78.045 137.498,84.645 141.441,84.645 141.441,68.307 137.498,68.307 		"/>
		<path fill="#FFFFFF" d="M152.089,80.551c-0.014,0.012-1.335,1.162-2.842,1.162c-1.401,0-2.026-0.871-2.306-1.631l4.678-0.609
			l1.925-0.566l-0.003-0.377c-0.024-3.469-1.935-5.625-4.984-5.625c-3.248,0-5.697,2.607-5.697,6.065c0,2.961,1.825,5.95,5.904,5.95
			c2.894,0,4.651-1.533,4.725-1.598l0.254-0.226l-1.104-3.031L152.089,80.551z M148.35,76.045c0.671,0,0.929,0.606,1.026,1.046
			l-2.52,0.329C147.039,76.782,147.445,76.045,148.35,76.045z"/>
		<polygon fill="#FFFFFF" points="154.865,84.645 158.74,84.645 158.74,67.071 154.865,67.691 		"/>
		<path fill="#FFFFFF" d="M166.364,72.906c-0.992,0-1.849,0.289-2.513,0.833v-0.877l-3.76,0.627v16.646l3.875-0.62v-4.782
			c0.559,0.158,1.137,0.188,1.5,0.188c3.801,0,5.789-3.19,5.789-6.341C171.256,75.239,169.244,72.906,166.364,72.906z
			 M167.29,78.764c0,1.918-0.841,3.018-2.306,3.018c-0.507,0-1.018-0.137-1.018-0.442v-3.958c0.368-0.506,1.034-1.223,1.846-1.223
			C166.71,76.16,167.29,77.182,167.29,78.764z"/>
		<path fill="#FFFFFF" d="M184.843,80.052c-0.017,0.013-1.659,1.293-4.173,1.293c-2.873,0-4.88-2.007-4.88-4.881
			c0-2.906,1.979-4.858,4.927-4.858c2.534,0,3.98,1.081,3.993,1.091l0.502,0.39l1.562-3.474l-0.354-0.235
			c-0.083-0.055-2.075-1.348-5.589-1.348c-5.345,0-9.077,3.572-9.077,8.687c0,4.83,3.591,8.203,8.732,8.203
			c4.059,0,6.119-1.871,6.204-1.95l0.287-0.266l-1.673-3.02L184.843,80.052z"/>
		<path fill="#FFFFFF" d="M198.027,80.949v-7.767h-3.851v7.102c-0.47,0.403-1.414,1.153-2.145,1.153c-0.299,0-0.581,0-0.581-1.523
			v-6.732h-3.874v8.088c0,2.32,1.229,3.65,3.374,3.65c1.543,0,2.778-0.69,3.606-1.35c0.089,0.477,0.178,0.866,0.184,0.892
			l0.097,0.427l3.772-0.346l-0.138-0.563C198.469,83.962,198.027,82.138,198.027,80.949z"/>
		<path fill="#FFFFFF" d="M209.108,80.066l-0.55,0.485c-0.014,0.012-1.335,1.162-2.842,1.162c-1.401,0-2.026-0.871-2.306-1.631
			l4.678-0.609l1.925-0.566l-0.003-0.377c-0.024-3.469-1.935-5.625-4.984-5.625c-3.247,0-5.696,2.607-5.696,6.065
			c0,2.961,1.825,5.95,5.903,5.95c2.894,0,4.651-1.533,4.725-1.598l0.254-0.226L209.108,80.066z M204.819,76.045
			c0.671,0,0.929,0.606,1.026,1.046l-2.52,0.329C203.509,76.782,203.915,76.045,204.819,76.045z"/>
	</g>
</g>
<g id="Layer_2">
</g>
<g id="Layer_3">
</g>
</svg>
